G04 #@! TF.GenerationSoftware,KiCad,Pcbnew,8.0.3*
G04 #@! TF.CreationDate,2024-06-16T13:56:30+02:00*
G04 #@! TF.ProjectId,UPET-Wifi,55504554-2d57-4696-9669-2e6b69636164,rev?*
G04 #@! TF.SameCoordinates,Original*
G04 #@! TF.FileFunction,Copper,L2,Bot*
G04 #@! TF.FilePolarity,Positive*
%FSLAX46Y46*%
G04 Gerber Fmt 4.6, Leading zero omitted, Abs format (unit mm)*
G04 Created by KiCad (PCBNEW 8.0.3) date 2024-06-16 13:56:30*
%MOMM*%
%LPD*%
G01*
G04 APERTURE LIST*
G04 #@! TA.AperFunction,HeatsinkPad*
%ADD10C,0.600000*%
G04 #@! TD*
G04 #@! TA.AperFunction,ComponentPad*
%ADD11O,1.320800X2.641600*%
G04 #@! TD*
G04 #@! TA.AperFunction,ViaPad*
%ADD12C,0.600000*%
G04 #@! TD*
G04 #@! TA.AperFunction,Conductor*
%ADD13C,0.400000*%
G04 #@! TD*
G04 #@! TA.AperFunction,Conductor*
%ADD14C,0.200000*%
G04 #@! TD*
G04 APERTURE END LIST*
D10*
X131412500Y-95390000D03*
X132512500Y-95390000D03*
X130862500Y-94840000D03*
X131962500Y-94840000D03*
X133062500Y-94840000D03*
X131412500Y-94290000D03*
X132512500Y-94290000D03*
X130862500Y-93740000D03*
X131962500Y-93740000D03*
X133062500Y-93740000D03*
X131412500Y-93190000D03*
X132512500Y-93190000D03*
D11*
X151130000Y-85090000D03*
X148590000Y-85090000D03*
X146050000Y-85090000D03*
X143510000Y-85090000D03*
X140970000Y-85090000D03*
X140970000Y-105410000D03*
X143510000Y-105410000D03*
X146050000Y-105410000D03*
X148590000Y-105410000D03*
X151130000Y-105410000D03*
D12*
X140335000Y-98425000D03*
X140970000Y-93345000D03*
X140335000Y-94095000D03*
X144165730Y-103792235D03*
X148333601Y-92726274D03*
X151567690Y-92796930D03*
X148907500Y-98742500D03*
X148907500Y-103187500D03*
X125730000Y-102552500D03*
X143177500Y-103329620D03*
X127952500Y-99377500D03*
X128587500Y-100012500D03*
X129222500Y-100647500D03*
X128587500Y-102235000D03*
X134795380Y-92310000D03*
X146685000Y-92710000D03*
X136525000Y-92710000D03*
X147512235Y-92507500D03*
X147955000Y-89852500D03*
X148907500Y-90487500D03*
X151765000Y-91122500D03*
X152525265Y-91502633D03*
X151459226Y-89668025D03*
X153335843Y-90719082D03*
X153893679Y-92257809D03*
D13*
X140335000Y-94095000D02*
X140335000Y-98425000D01*
X139065000Y-103329620D02*
X139065000Y-93662500D01*
X126507120Y-103329620D02*
X139065000Y-103329620D01*
X139065000Y-93662500D02*
X139382500Y-93345000D01*
X139065000Y-103329620D02*
X143177500Y-103329620D01*
X139382500Y-93345000D02*
X140970000Y-93345000D01*
D14*
X134795380Y-92310000D02*
X134932880Y-92172500D01*
X144165730Y-103792235D02*
X144165730Y-96816770D01*
X136222500Y-92060000D02*
X146954239Y-92060000D01*
X148256226Y-92726274D02*
X148333601Y-92726274D01*
X146954239Y-92060000D02*
X147401739Y-92507500D01*
X147401739Y-92507500D02*
X147512235Y-92507500D01*
X134932880Y-92172500D02*
X136110000Y-92172500D01*
X144165730Y-96816770D02*
X148256226Y-92726274D01*
X136110000Y-92172500D02*
X136222500Y-92060000D01*
X144815730Y-104764670D02*
X144815730Y-103707920D01*
X129857500Y-100965000D02*
X128587500Y-102235000D01*
X151043070Y-92796930D02*
X151567690Y-92796930D01*
X144862500Y-98977500D02*
X151043070Y-92796930D01*
X144170400Y-105410000D02*
X144815730Y-104764670D01*
X151345685Y-91725000D02*
X151280685Y-91660000D01*
X132038872Y-91660000D02*
X129857500Y-93841372D01*
X129857500Y-93841372D02*
X129857500Y-100965000D01*
X151280685Y-91660000D02*
X132038872Y-91660000D01*
X152302898Y-91725000D02*
X151345685Y-91725000D01*
X152525265Y-91502633D02*
X152302898Y-91725000D01*
X144862500Y-103661151D02*
X144862500Y-98977500D01*
X144815730Y-103707920D02*
X144862500Y-103661151D01*
X143510000Y-105410000D02*
X144170400Y-105410000D01*
D13*
X125730000Y-102552500D02*
X126507120Y-103329620D01*
X148907500Y-98742500D02*
X148907500Y-103187500D01*
D14*
X146685000Y-92710000D02*
X136525000Y-92710000D01*
X146050000Y-85290000D02*
X151232500Y-90472500D01*
X153089261Y-90472500D02*
X153335843Y-90719082D01*
X148590000Y-86798799D02*
X151459226Y-89668025D01*
X153985843Y-92165645D02*
X153893679Y-92257809D01*
X151232500Y-90472500D02*
X153089261Y-90472500D01*
X148590000Y-85090000D02*
X148590000Y-86798799D01*
X146050000Y-85090000D02*
X146050000Y-85290000D01*
X151130000Y-85090000D02*
X153985843Y-87945843D01*
X153985843Y-87945843D02*
X153985843Y-92165645D01*
X129222500Y-93910686D02*
X129222500Y-100647500D01*
X128587500Y-93980000D02*
X128587500Y-100012500D01*
X132080000Y-90487500D02*
X128587500Y-93980000D01*
X151765000Y-91122500D02*
X132010686Y-91122500D01*
X147955000Y-89852500D02*
X132149314Y-89852500D01*
X132010686Y-91122500D02*
X129222500Y-93910686D01*
X148907500Y-90487500D02*
X132080000Y-90487500D01*
X132149314Y-89852500D02*
X127952500Y-94049314D01*
X127952500Y-94049314D02*
X127952500Y-99377500D01*
M02*
