G04 #@! TF.GenerationSoftware,KiCad,Pcbnew,8.0.4*
G04 #@! TF.CreationDate,2024-08-01T12:17:22+02:00*
G04 #@! TF.ProjectId,UPET-Wifi,55504554-2d57-4696-9669-2e6b69636164,rev?*
G04 #@! TF.SameCoordinates,Original*
G04 #@! TF.FileFunction,Legend,Top*
G04 #@! TF.FilePolarity,Positive*
%FSLAX46Y46*%
G04 Gerber Fmt 4.6, Leading zero omitted, Abs format (unit mm)*
G04 Created by KiCad (PCBNEW 8.0.4) date 2024-08-01 12:17:22*
%MOMM*%
%LPD*%
G01*
G04 APERTURE LIST*
G04 Aperture macros list*
%AMRoundRect*
0 Rectangle with rounded corners*
0 $1 Rounding radius*
0 $2 $3 $4 $5 $6 $7 $8 $9 X,Y pos of 4 corners*
0 Add a 4 corners polygon primitive as box body*
4,1,4,$2,$3,$4,$5,$6,$7,$8,$9,$2,$3,0*
0 Add four circle primitives for the rounded corners*
1,1,$1+$1,$2,$3*
1,1,$1+$1,$4,$5*
1,1,$1+$1,$6,$7*
1,1,$1+$1,$8,$9*
0 Add four rect primitives between the rounded corners*
20,1,$1+$1,$2,$3,$4,$5,0*
20,1,$1+$1,$4,$5,$6,$7,0*
20,1,$1+$1,$6,$7,$8,$9,0*
20,1,$1+$1,$8,$9,$2,$3,0*%
%AMFreePoly0*
4,1,19,0.000000,0.744911,0.071157,0.744911,0.207708,0.704816,0.327430,0.627875,0.420627,0.520320,0.479746,0.390866,0.500000,0.250000,0.500000,-0.250000,0.479746,-0.390866,0.420627,-0.520320,0.327430,-0.627875,0.207708,-0.704816,0.071157,-0.744911,0.000000,-0.744911,0.000000,-0.750000,-0.500000,-0.750000,-0.500000,0.750000,0.000000,0.750000,0.000000,0.744911,0.000000,0.744911,
$1*%
%AMFreePoly1*
4,1,19,0.500000,-0.750000,0.000000,-0.750000,0.000000,-0.744911,-0.071157,-0.744911,-0.207708,-0.704816,-0.327430,-0.627875,-0.420627,-0.520320,-0.479746,-0.390866,-0.500000,-0.250000,-0.500000,0.250000,-0.479746,0.390866,-0.420627,0.520320,-0.327430,0.627875,-0.207708,0.704816,-0.071157,0.744911,0.000000,0.744911,0.000000,0.750000,0.500000,0.750000,0.500000,-0.750000,0.500000,-0.750000,
$1*%
G04 Aperture macros list end*
%ADD10C,0.200000*%
%ADD11C,0.150000*%
%ADD12C,0.120000*%
%ADD13C,0.152400*%
%ADD14RoundRect,0.237500X-0.237500X0.250000X-0.237500X-0.250000X0.237500X-0.250000X0.237500X0.250000X0*%
%ADD15R,0.900000X1.500000*%
%ADD16C,0.600000*%
%ADD17R,2.900000X2.900000*%
%ADD18O,1.524000X2.844800*%
%ADD19RoundRect,0.237500X-0.250000X-0.237500X0.250000X-0.237500X0.250000X0.237500X-0.250000X0.237500X0*%
%ADD20R,1.700000X1.700000*%
%ADD21O,1.700000X1.700000*%
%ADD22RoundRect,0.225000X0.225000X0.375000X-0.225000X0.375000X-0.225000X-0.375000X0.225000X-0.375000X0*%
%ADD23FreePoly0,180.000000*%
%ADD24FreePoly1,180.000000*%
%ADD25RoundRect,0.237500X0.237500X-0.300000X0.237500X0.300000X-0.237500X0.300000X-0.237500X-0.300000X0*%
%ADD26RoundRect,0.237500X-0.300000X-0.237500X0.300000X-0.237500X0.300000X0.237500X-0.300000X0.237500X0*%
%ADD27RoundRect,0.100000X0.100000X-0.637500X0.100000X0.637500X-0.100000X0.637500X-0.100000X-0.637500X0*%
%ADD28RoundRect,0.237500X0.300000X0.237500X-0.300000X0.237500X-0.300000X-0.237500X0.300000X-0.237500X0*%
%ADD29R,1.800000X2.000000*%
%ADD30FreePoly1,90.000000*%
%ADD31FreePoly0,90.000000*%
G04 APERTURE END LIST*
D10*
X134354673Y-92688409D02*
X134688006Y-92688409D01*
X134830863Y-93212219D02*
X134354673Y-93212219D01*
X134354673Y-93212219D02*
X134354673Y-92212219D01*
X134354673Y-92212219D02*
X134830863Y-92212219D01*
X135211816Y-93164600D02*
X135354673Y-93212219D01*
X135354673Y-93212219D02*
X135592768Y-93212219D01*
X135592768Y-93212219D02*
X135688006Y-93164600D01*
X135688006Y-93164600D02*
X135735625Y-93116980D01*
X135735625Y-93116980D02*
X135783244Y-93021742D01*
X135783244Y-93021742D02*
X135783244Y-92926504D01*
X135783244Y-92926504D02*
X135735625Y-92831266D01*
X135735625Y-92831266D02*
X135688006Y-92783647D01*
X135688006Y-92783647D02*
X135592768Y-92736028D01*
X135592768Y-92736028D02*
X135402292Y-92688409D01*
X135402292Y-92688409D02*
X135307054Y-92640790D01*
X135307054Y-92640790D02*
X135259435Y-92593171D01*
X135259435Y-92593171D02*
X135211816Y-92497933D01*
X135211816Y-92497933D02*
X135211816Y-92402695D01*
X135211816Y-92402695D02*
X135259435Y-92307457D01*
X135259435Y-92307457D02*
X135307054Y-92259838D01*
X135307054Y-92259838D02*
X135402292Y-92212219D01*
X135402292Y-92212219D02*
X135640387Y-92212219D01*
X135640387Y-92212219D02*
X135783244Y-92259838D01*
X136211816Y-93212219D02*
X136211816Y-92212219D01*
X136211816Y-92212219D02*
X136592768Y-92212219D01*
X136592768Y-92212219D02*
X136688006Y-92259838D01*
X136688006Y-92259838D02*
X136735625Y-92307457D01*
X136735625Y-92307457D02*
X136783244Y-92402695D01*
X136783244Y-92402695D02*
X136783244Y-92545552D01*
X136783244Y-92545552D02*
X136735625Y-92640790D01*
X136735625Y-92640790D02*
X136688006Y-92688409D01*
X136688006Y-92688409D02*
X136592768Y-92736028D01*
X136592768Y-92736028D02*
X136211816Y-92736028D01*
X137973721Y-93212219D02*
X137973721Y-92212219D01*
X137973721Y-92212219D02*
X138354673Y-92212219D01*
X138354673Y-92212219D02*
X138449911Y-92259838D01*
X138449911Y-92259838D02*
X138497530Y-92307457D01*
X138497530Y-92307457D02*
X138545149Y-92402695D01*
X138545149Y-92402695D02*
X138545149Y-92545552D01*
X138545149Y-92545552D02*
X138497530Y-92640790D01*
X138497530Y-92640790D02*
X138449911Y-92688409D01*
X138449911Y-92688409D02*
X138354673Y-92736028D01*
X138354673Y-92736028D02*
X137973721Y-92736028D01*
X138973721Y-93212219D02*
X138973721Y-92545552D01*
X138973721Y-92736028D02*
X139021340Y-92640790D01*
X139021340Y-92640790D02*
X139068959Y-92593171D01*
X139068959Y-92593171D02*
X139164197Y-92545552D01*
X139164197Y-92545552D02*
X139259435Y-92545552D01*
X139735626Y-93212219D02*
X139640388Y-93164600D01*
X139640388Y-93164600D02*
X139592769Y-93116980D01*
X139592769Y-93116980D02*
X139545150Y-93021742D01*
X139545150Y-93021742D02*
X139545150Y-92736028D01*
X139545150Y-92736028D02*
X139592769Y-92640790D01*
X139592769Y-92640790D02*
X139640388Y-92593171D01*
X139640388Y-92593171D02*
X139735626Y-92545552D01*
X139735626Y-92545552D02*
X139878483Y-92545552D01*
X139878483Y-92545552D02*
X139973721Y-92593171D01*
X139973721Y-92593171D02*
X140021340Y-92640790D01*
X140021340Y-92640790D02*
X140068959Y-92736028D01*
X140068959Y-92736028D02*
X140068959Y-93021742D01*
X140068959Y-93021742D02*
X140021340Y-93116980D01*
X140021340Y-93116980D02*
X139973721Y-93164600D01*
X139973721Y-93164600D02*
X139878483Y-93212219D01*
X139878483Y-93212219D02*
X139735626Y-93212219D01*
X140926102Y-92545552D02*
X140926102Y-93355076D01*
X140926102Y-93355076D02*
X140878483Y-93450314D01*
X140878483Y-93450314D02*
X140830864Y-93497933D01*
X140830864Y-93497933D02*
X140735626Y-93545552D01*
X140735626Y-93545552D02*
X140592769Y-93545552D01*
X140592769Y-93545552D02*
X140497531Y-93497933D01*
X140926102Y-93164600D02*
X140830864Y-93212219D01*
X140830864Y-93212219D02*
X140640388Y-93212219D01*
X140640388Y-93212219D02*
X140545150Y-93164600D01*
X140545150Y-93164600D02*
X140497531Y-93116980D01*
X140497531Y-93116980D02*
X140449912Y-93021742D01*
X140449912Y-93021742D02*
X140449912Y-92736028D01*
X140449912Y-92736028D02*
X140497531Y-92640790D01*
X140497531Y-92640790D02*
X140545150Y-92593171D01*
X140545150Y-92593171D02*
X140640388Y-92545552D01*
X140640388Y-92545552D02*
X140830864Y-92545552D01*
X140830864Y-92545552D02*
X140926102Y-92593171D01*
X148324673Y-92212219D02*
X148324673Y-93021742D01*
X148324673Y-93021742D02*
X148372292Y-93116980D01*
X148372292Y-93116980D02*
X148419911Y-93164600D01*
X148419911Y-93164600D02*
X148515149Y-93212219D01*
X148515149Y-93212219D02*
X148705625Y-93212219D01*
X148705625Y-93212219D02*
X148800863Y-93164600D01*
X148800863Y-93164600D02*
X148848482Y-93116980D01*
X148848482Y-93116980D02*
X148896101Y-93021742D01*
X148896101Y-93021742D02*
X148896101Y-92212219D01*
X149324673Y-92926504D02*
X149800863Y-92926504D01*
X149229435Y-93212219D02*
X149562768Y-92212219D01*
X149562768Y-92212219D02*
X149896101Y-93212219D01*
X150800863Y-93212219D02*
X150467530Y-92736028D01*
X150229435Y-93212219D02*
X150229435Y-92212219D01*
X150229435Y-92212219D02*
X150610387Y-92212219D01*
X150610387Y-92212219D02*
X150705625Y-92259838D01*
X150705625Y-92259838D02*
X150753244Y-92307457D01*
X150753244Y-92307457D02*
X150800863Y-92402695D01*
X150800863Y-92402695D02*
X150800863Y-92545552D01*
X150800863Y-92545552D02*
X150753244Y-92640790D01*
X150753244Y-92640790D02*
X150705625Y-92688409D01*
X150705625Y-92688409D02*
X150610387Y-92736028D01*
X150610387Y-92736028D02*
X150229435Y-92736028D01*
X151086578Y-92212219D02*
X151658006Y-92212219D01*
X151372292Y-93212219D02*
X151372292Y-92212219D01*
X153086578Y-92688409D02*
X153229435Y-92736028D01*
X153229435Y-92736028D02*
X153277054Y-92783647D01*
X153277054Y-92783647D02*
X153324673Y-92878885D01*
X153324673Y-92878885D02*
X153324673Y-93021742D01*
X153324673Y-93021742D02*
X153277054Y-93116980D01*
X153277054Y-93116980D02*
X153229435Y-93164600D01*
X153229435Y-93164600D02*
X153134197Y-93212219D01*
X153134197Y-93212219D02*
X152753245Y-93212219D01*
X152753245Y-93212219D02*
X152753245Y-92212219D01*
X152753245Y-92212219D02*
X153086578Y-92212219D01*
X153086578Y-92212219D02*
X153181816Y-92259838D01*
X153181816Y-92259838D02*
X153229435Y-92307457D01*
X153229435Y-92307457D02*
X153277054Y-92402695D01*
X153277054Y-92402695D02*
X153277054Y-92497933D01*
X153277054Y-92497933D02*
X153229435Y-92593171D01*
X153229435Y-92593171D02*
X153181816Y-92640790D01*
X153181816Y-92640790D02*
X153086578Y-92688409D01*
X153086578Y-92688409D02*
X152753245Y-92688409D01*
X142663601Y-87497338D02*
X142587411Y-87449719D01*
X142587411Y-87449719D02*
X142473125Y-87449719D01*
X142473125Y-87449719D02*
X142358839Y-87497338D01*
X142358839Y-87497338D02*
X142282649Y-87592576D01*
X142282649Y-87592576D02*
X142244554Y-87687814D01*
X142244554Y-87687814D02*
X142206458Y-87878290D01*
X142206458Y-87878290D02*
X142206458Y-88021147D01*
X142206458Y-88021147D02*
X142244554Y-88211623D01*
X142244554Y-88211623D02*
X142282649Y-88306861D01*
X142282649Y-88306861D02*
X142358839Y-88402100D01*
X142358839Y-88402100D02*
X142473125Y-88449719D01*
X142473125Y-88449719D02*
X142549316Y-88449719D01*
X142549316Y-88449719D02*
X142663601Y-88402100D01*
X142663601Y-88402100D02*
X142701697Y-88354480D01*
X142701697Y-88354480D02*
X142701697Y-88021147D01*
X142701697Y-88021147D02*
X142549316Y-88021147D01*
X143044554Y-88449719D02*
X143044554Y-87449719D01*
X143044554Y-87449719D02*
X143501697Y-88449719D01*
X143501697Y-88449719D02*
X143501697Y-87449719D01*
X143882649Y-88449719D02*
X143882649Y-87449719D01*
X143882649Y-87449719D02*
X144073125Y-87449719D01*
X144073125Y-87449719D02*
X144187411Y-87497338D01*
X144187411Y-87497338D02*
X144263601Y-87592576D01*
X144263601Y-87592576D02*
X144301696Y-87687814D01*
X144301696Y-87687814D02*
X144339792Y-87878290D01*
X144339792Y-87878290D02*
X144339792Y-88021147D01*
X144339792Y-88021147D02*
X144301696Y-88211623D01*
X144301696Y-88211623D02*
X144263601Y-88306861D01*
X144263601Y-88306861D02*
X144187411Y-88402100D01*
X144187411Y-88402100D02*
X144073125Y-88449719D01*
X144073125Y-88449719D02*
X143882649Y-88449719D01*
X145863601Y-87402100D02*
X145177887Y-88687814D01*
X146587411Y-88354480D02*
X146549315Y-88402100D01*
X146549315Y-88402100D02*
X146435030Y-88449719D01*
X146435030Y-88449719D02*
X146358839Y-88449719D01*
X146358839Y-88449719D02*
X146244553Y-88402100D01*
X146244553Y-88402100D02*
X146168363Y-88306861D01*
X146168363Y-88306861D02*
X146130268Y-88211623D01*
X146130268Y-88211623D02*
X146092172Y-88021147D01*
X146092172Y-88021147D02*
X146092172Y-87878290D01*
X146092172Y-87878290D02*
X146130268Y-87687814D01*
X146130268Y-87687814D02*
X146168363Y-87592576D01*
X146168363Y-87592576D02*
X146244553Y-87497338D01*
X146244553Y-87497338D02*
X146358839Y-87449719D01*
X146358839Y-87449719D02*
X146435030Y-87449719D01*
X146435030Y-87449719D02*
X146549315Y-87497338D01*
X146549315Y-87497338D02*
X146587411Y-87544957D01*
X146815982Y-87449719D02*
X147273125Y-87449719D01*
X147044553Y-88449719D02*
X147044553Y-87449719D01*
X147501696Y-88402100D02*
X147615982Y-88449719D01*
X147615982Y-88449719D02*
X147806458Y-88449719D01*
X147806458Y-88449719D02*
X147882649Y-88402100D01*
X147882649Y-88402100D02*
X147920744Y-88354480D01*
X147920744Y-88354480D02*
X147958839Y-88259242D01*
X147958839Y-88259242D02*
X147958839Y-88164004D01*
X147958839Y-88164004D02*
X147920744Y-88068766D01*
X147920744Y-88068766D02*
X147882649Y-88021147D01*
X147882649Y-88021147D02*
X147806458Y-87973528D01*
X147806458Y-87973528D02*
X147654077Y-87925909D01*
X147654077Y-87925909D02*
X147577887Y-87878290D01*
X147577887Y-87878290D02*
X147539792Y-87830671D01*
X147539792Y-87830671D02*
X147501696Y-87735433D01*
X147501696Y-87735433D02*
X147501696Y-87640195D01*
X147501696Y-87640195D02*
X147539792Y-87544957D01*
X147539792Y-87544957D02*
X147577887Y-87497338D01*
X147577887Y-87497338D02*
X147654077Y-87449719D01*
X147654077Y-87449719D02*
X147844554Y-87449719D01*
X147844554Y-87449719D02*
X147958839Y-87497338D01*
X148796935Y-87449719D02*
X149254078Y-87449719D01*
X149025506Y-88449719D02*
X149025506Y-87449719D01*
X149444554Y-87449719D02*
X149977888Y-88449719D01*
X149977888Y-87449719D02*
X149444554Y-88449719D01*
X151349317Y-88449719D02*
X151082650Y-87973528D01*
X150892174Y-88449719D02*
X150892174Y-87449719D01*
X150892174Y-87449719D02*
X151196936Y-87449719D01*
X151196936Y-87449719D02*
X151273126Y-87497338D01*
X151273126Y-87497338D02*
X151311221Y-87544957D01*
X151311221Y-87544957D02*
X151349317Y-87640195D01*
X151349317Y-87640195D02*
X151349317Y-87783052D01*
X151349317Y-87783052D02*
X151311221Y-87878290D01*
X151311221Y-87878290D02*
X151273126Y-87925909D01*
X151273126Y-87925909D02*
X151196936Y-87973528D01*
X151196936Y-87973528D02*
X150892174Y-87973528D01*
X151615983Y-87449719D02*
X152149317Y-88449719D01*
X152149317Y-87449719D02*
X151615983Y-88449719D01*
X153635031Y-87402100D02*
X152949317Y-88687814D01*
X154358841Y-88449719D02*
X154092174Y-87973528D01*
X153901698Y-88449719D02*
X153901698Y-87449719D01*
X153901698Y-87449719D02*
X154206460Y-87449719D01*
X154206460Y-87449719D02*
X154282650Y-87497338D01*
X154282650Y-87497338D02*
X154320745Y-87544957D01*
X154320745Y-87544957D02*
X154358841Y-87640195D01*
X154358841Y-87640195D02*
X154358841Y-87783052D01*
X154358841Y-87783052D02*
X154320745Y-87878290D01*
X154320745Y-87878290D02*
X154282650Y-87925909D01*
X154282650Y-87925909D02*
X154206460Y-87973528D01*
X154206460Y-87973528D02*
X153901698Y-87973528D01*
X154587412Y-87449719D02*
X155044555Y-87449719D01*
X154815983Y-88449719D02*
X154815983Y-87449719D01*
X155273126Y-88402100D02*
X155387412Y-88449719D01*
X155387412Y-88449719D02*
X155577888Y-88449719D01*
X155577888Y-88449719D02*
X155654079Y-88402100D01*
X155654079Y-88402100D02*
X155692174Y-88354480D01*
X155692174Y-88354480D02*
X155730269Y-88259242D01*
X155730269Y-88259242D02*
X155730269Y-88164004D01*
X155730269Y-88164004D02*
X155692174Y-88068766D01*
X155692174Y-88068766D02*
X155654079Y-88021147D01*
X155654079Y-88021147D02*
X155577888Y-87973528D01*
X155577888Y-87973528D02*
X155425507Y-87925909D01*
X155425507Y-87925909D02*
X155349317Y-87878290D01*
X155349317Y-87878290D02*
X155311222Y-87830671D01*
X155311222Y-87830671D02*
X155273126Y-87735433D01*
X155273126Y-87735433D02*
X155273126Y-87640195D01*
X155273126Y-87640195D02*
X155311222Y-87544957D01*
X155311222Y-87544957D02*
X155349317Y-87497338D01*
X155349317Y-87497338D02*
X155425507Y-87449719D01*
X155425507Y-87449719D02*
X155615984Y-87449719D01*
X155615984Y-87449719D02*
X155730269Y-87497338D01*
X138339316Y-87449719D02*
X138910744Y-87449719D01*
X138625030Y-88449719D02*
X138625030Y-87449719D01*
X139148840Y-87449719D02*
X139815506Y-88449719D01*
X139815506Y-87449719D02*
X139148840Y-88449719D01*
X136513601Y-88449719D02*
X136180268Y-87973528D01*
X135942173Y-88449719D02*
X135942173Y-87449719D01*
X135942173Y-87449719D02*
X136323125Y-87449719D01*
X136323125Y-87449719D02*
X136418363Y-87497338D01*
X136418363Y-87497338D02*
X136465982Y-87544957D01*
X136465982Y-87544957D02*
X136513601Y-87640195D01*
X136513601Y-87640195D02*
X136513601Y-87783052D01*
X136513601Y-87783052D02*
X136465982Y-87878290D01*
X136465982Y-87878290D02*
X136418363Y-87925909D01*
X136418363Y-87925909D02*
X136323125Y-87973528D01*
X136323125Y-87973528D02*
X135942173Y-87973528D01*
X136846935Y-87449719D02*
X137513601Y-88449719D01*
X137513601Y-87449719D02*
X136846935Y-88449719D01*
X132973482Y-87497338D02*
X132878244Y-87449719D01*
X132878244Y-87449719D02*
X132735387Y-87449719D01*
X132735387Y-87449719D02*
X132592530Y-87497338D01*
X132592530Y-87497338D02*
X132497292Y-87592576D01*
X132497292Y-87592576D02*
X132449673Y-87687814D01*
X132449673Y-87687814D02*
X132402054Y-87878290D01*
X132402054Y-87878290D02*
X132402054Y-88021147D01*
X132402054Y-88021147D02*
X132449673Y-88211623D01*
X132449673Y-88211623D02*
X132497292Y-88306861D01*
X132497292Y-88306861D02*
X132592530Y-88402100D01*
X132592530Y-88402100D02*
X132735387Y-88449719D01*
X132735387Y-88449719D02*
X132830625Y-88449719D01*
X132830625Y-88449719D02*
X132973482Y-88402100D01*
X132973482Y-88402100D02*
X133021101Y-88354480D01*
X133021101Y-88354480D02*
X133021101Y-88021147D01*
X133021101Y-88021147D02*
X132830625Y-88021147D01*
X133449673Y-88449719D02*
X133449673Y-87449719D01*
X133449673Y-87449719D02*
X134021101Y-88449719D01*
X134021101Y-88449719D02*
X134021101Y-87449719D01*
X134497292Y-88449719D02*
X134497292Y-87449719D01*
X134497292Y-87449719D02*
X134735387Y-87449719D01*
X134735387Y-87449719D02*
X134878244Y-87497338D01*
X134878244Y-87497338D02*
X134973482Y-87592576D01*
X134973482Y-87592576D02*
X135021101Y-87687814D01*
X135021101Y-87687814D02*
X135068720Y-87878290D01*
X135068720Y-87878290D02*
X135068720Y-88021147D01*
X135068720Y-88021147D02*
X135021101Y-88211623D01*
X135021101Y-88211623D02*
X134973482Y-88306861D01*
X134973482Y-88306861D02*
X134878244Y-88402100D01*
X134878244Y-88402100D02*
X134735387Y-88449719D01*
X134735387Y-88449719D02*
X134497292Y-88449719D01*
X118507620Y-83322219D02*
X118507620Y-84131742D01*
X118507620Y-84131742D02*
X118555239Y-84226980D01*
X118555239Y-84226980D02*
X118602858Y-84274600D01*
X118602858Y-84274600D02*
X118698096Y-84322219D01*
X118698096Y-84322219D02*
X118888572Y-84322219D01*
X118888572Y-84322219D02*
X118983810Y-84274600D01*
X118983810Y-84274600D02*
X119031429Y-84226980D01*
X119031429Y-84226980D02*
X119079048Y-84131742D01*
X119079048Y-84131742D02*
X119079048Y-83322219D01*
X119555239Y-84322219D02*
X119555239Y-83322219D01*
X119555239Y-83322219D02*
X119936191Y-83322219D01*
X119936191Y-83322219D02*
X120031429Y-83369838D01*
X120031429Y-83369838D02*
X120079048Y-83417457D01*
X120079048Y-83417457D02*
X120126667Y-83512695D01*
X120126667Y-83512695D02*
X120126667Y-83655552D01*
X120126667Y-83655552D02*
X120079048Y-83750790D01*
X120079048Y-83750790D02*
X120031429Y-83798409D01*
X120031429Y-83798409D02*
X119936191Y-83846028D01*
X119936191Y-83846028D02*
X119555239Y-83846028D01*
X120555239Y-83798409D02*
X120888572Y-83798409D01*
X121031429Y-84322219D02*
X120555239Y-84322219D01*
X120555239Y-84322219D02*
X120555239Y-83322219D01*
X120555239Y-83322219D02*
X121031429Y-83322219D01*
X121317144Y-83322219D02*
X121888572Y-83322219D01*
X121602858Y-84322219D02*
X121602858Y-83322219D01*
X122221906Y-83941266D02*
X122983811Y-83941266D01*
X123364763Y-83322219D02*
X123602858Y-84322219D01*
X123602858Y-84322219D02*
X123793334Y-83607933D01*
X123793334Y-83607933D02*
X123983810Y-84322219D01*
X123983810Y-84322219D02*
X124221906Y-83322219D01*
X124602858Y-84322219D02*
X124602858Y-83322219D01*
X125412381Y-83798409D02*
X125079048Y-83798409D01*
X125079048Y-84322219D02*
X125079048Y-83322219D01*
X125079048Y-83322219D02*
X125555238Y-83322219D01*
X125936191Y-84322219D02*
X125936191Y-83322219D01*
X126412381Y-83941266D02*
X127174286Y-83941266D01*
X128174285Y-84322219D02*
X127602857Y-84322219D01*
X127888571Y-84322219D02*
X127888571Y-83322219D01*
X127888571Y-83322219D02*
X127793333Y-83465076D01*
X127793333Y-83465076D02*
X127698095Y-83560314D01*
X127698095Y-83560314D02*
X127602857Y-83607933D01*
X128602857Y-84226980D02*
X128650476Y-84274600D01*
X128650476Y-84274600D02*
X128602857Y-84322219D01*
X128602857Y-84322219D02*
X128555238Y-84274600D01*
X128555238Y-84274600D02*
X128602857Y-84226980D01*
X128602857Y-84226980D02*
X128602857Y-84322219D01*
X129031428Y-83417457D02*
X129079047Y-83369838D01*
X129079047Y-83369838D02*
X129174285Y-83322219D01*
X129174285Y-83322219D02*
X129412380Y-83322219D01*
X129412380Y-83322219D02*
X129507618Y-83369838D01*
X129507618Y-83369838D02*
X129555237Y-83417457D01*
X129555237Y-83417457D02*
X129602856Y-83512695D01*
X129602856Y-83512695D02*
X129602856Y-83607933D01*
X129602856Y-83607933D02*
X129555237Y-83750790D01*
X129555237Y-83750790D02*
X128983809Y-84322219D01*
X128983809Y-84322219D02*
X129602856Y-84322219D01*
X129983809Y-84036504D02*
X130459999Y-84036504D01*
X129888571Y-84322219D02*
X130221904Y-83322219D01*
X130221904Y-83322219D02*
X130555237Y-84322219D01*
D11*
X137932319Y-102084166D02*
X137456128Y-102417499D01*
X137932319Y-102655594D02*
X136932319Y-102655594D01*
X136932319Y-102655594D02*
X136932319Y-102274642D01*
X136932319Y-102274642D02*
X136979938Y-102179404D01*
X136979938Y-102179404D02*
X137027557Y-102131785D01*
X137027557Y-102131785D02*
X137122795Y-102084166D01*
X137122795Y-102084166D02*
X137265652Y-102084166D01*
X137265652Y-102084166D02*
X137360890Y-102131785D01*
X137360890Y-102131785D02*
X137408509Y-102179404D01*
X137408509Y-102179404D02*
X137456128Y-102274642D01*
X137456128Y-102274642D02*
X137456128Y-102655594D01*
X137265652Y-101227023D02*
X137932319Y-101227023D01*
X136884700Y-101465118D02*
X137598985Y-101703213D01*
X137598985Y-101703213D02*
X137598985Y-101084166D01*
X117665595Y-105499819D02*
X117665595Y-106309342D01*
X117665595Y-106309342D02*
X117713214Y-106404580D01*
X117713214Y-106404580D02*
X117760833Y-106452200D01*
X117760833Y-106452200D02*
X117856071Y-106499819D01*
X117856071Y-106499819D02*
X118046547Y-106499819D01*
X118046547Y-106499819D02*
X118141785Y-106452200D01*
X118141785Y-106452200D02*
X118189404Y-106404580D01*
X118189404Y-106404580D02*
X118237023Y-106309342D01*
X118237023Y-106309342D02*
X118237023Y-105499819D01*
X119237023Y-106499819D02*
X118665595Y-106499819D01*
X118951309Y-106499819D02*
X118951309Y-105499819D01*
X118951309Y-105499819D02*
X118856071Y-105642676D01*
X118856071Y-105642676D02*
X118760833Y-105737914D01*
X118760833Y-105737914D02*
X118665595Y-105785533D01*
X136993333Y-84909819D02*
X136660000Y-84433628D01*
X136421905Y-84909819D02*
X136421905Y-83909819D01*
X136421905Y-83909819D02*
X136802857Y-83909819D01*
X136802857Y-83909819D02*
X136898095Y-83957438D01*
X136898095Y-83957438D02*
X136945714Y-84005057D01*
X136945714Y-84005057D02*
X136993333Y-84100295D01*
X136993333Y-84100295D02*
X136993333Y-84243152D01*
X136993333Y-84243152D02*
X136945714Y-84338390D01*
X136945714Y-84338390D02*
X136898095Y-84386009D01*
X136898095Y-84386009D02*
X136802857Y-84433628D01*
X136802857Y-84433628D02*
X136421905Y-84433628D01*
X137326667Y-83909819D02*
X137945714Y-83909819D01*
X137945714Y-83909819D02*
X137612381Y-84290771D01*
X137612381Y-84290771D02*
X137755238Y-84290771D01*
X137755238Y-84290771D02*
X137850476Y-84338390D01*
X137850476Y-84338390D02*
X137898095Y-84386009D01*
X137898095Y-84386009D02*
X137945714Y-84481247D01*
X137945714Y-84481247D02*
X137945714Y-84719342D01*
X137945714Y-84719342D02*
X137898095Y-84814580D01*
X137898095Y-84814580D02*
X137850476Y-84862200D01*
X137850476Y-84862200D02*
X137755238Y-84909819D01*
X137755238Y-84909819D02*
X137469524Y-84909819D01*
X137469524Y-84909819D02*
X137374286Y-84862200D01*
X137374286Y-84862200D02*
X137326667Y-84814580D01*
X136993333Y-86497319D02*
X136660000Y-86021128D01*
X136421905Y-86497319D02*
X136421905Y-85497319D01*
X136421905Y-85497319D02*
X136802857Y-85497319D01*
X136802857Y-85497319D02*
X136898095Y-85544938D01*
X136898095Y-85544938D02*
X136945714Y-85592557D01*
X136945714Y-85592557D02*
X136993333Y-85687795D01*
X136993333Y-85687795D02*
X136993333Y-85830652D01*
X136993333Y-85830652D02*
X136945714Y-85925890D01*
X136945714Y-85925890D02*
X136898095Y-85973509D01*
X136898095Y-85973509D02*
X136802857Y-86021128D01*
X136802857Y-86021128D02*
X136421905Y-86021128D01*
X137374286Y-85592557D02*
X137421905Y-85544938D01*
X137421905Y-85544938D02*
X137517143Y-85497319D01*
X137517143Y-85497319D02*
X137755238Y-85497319D01*
X137755238Y-85497319D02*
X137850476Y-85544938D01*
X137850476Y-85544938D02*
X137898095Y-85592557D01*
X137898095Y-85592557D02*
X137945714Y-85687795D01*
X137945714Y-85687795D02*
X137945714Y-85783033D01*
X137945714Y-85783033D02*
X137898095Y-85925890D01*
X137898095Y-85925890D02*
X137326667Y-86497319D01*
X137326667Y-86497319D02*
X137945714Y-86497319D01*
X143599819Y-93360833D02*
X144314104Y-93360833D01*
X144314104Y-93360833D02*
X144456961Y-93408452D01*
X144456961Y-93408452D02*
X144552200Y-93503690D01*
X144552200Y-93503690D02*
X144599819Y-93646547D01*
X144599819Y-93646547D02*
X144599819Y-93741785D01*
X143695057Y-92932261D02*
X143647438Y-92884642D01*
X143647438Y-92884642D02*
X143599819Y-92789404D01*
X143599819Y-92789404D02*
X143599819Y-92551309D01*
X143599819Y-92551309D02*
X143647438Y-92456071D01*
X143647438Y-92456071D02*
X143695057Y-92408452D01*
X143695057Y-92408452D02*
X143790295Y-92360833D01*
X143790295Y-92360833D02*
X143885533Y-92360833D01*
X143885533Y-92360833D02*
X144028390Y-92408452D01*
X144028390Y-92408452D02*
X144599819Y-92979880D01*
X144599819Y-92979880D02*
X144599819Y-92360833D01*
X132487319Y-93043333D02*
X133201604Y-93043333D01*
X133201604Y-93043333D02*
X133344461Y-93090952D01*
X133344461Y-93090952D02*
X133439700Y-93186190D01*
X133439700Y-93186190D02*
X133487319Y-93329047D01*
X133487319Y-93329047D02*
X133487319Y-93424285D01*
X133487319Y-92043333D02*
X133487319Y-92614761D01*
X133487319Y-92329047D02*
X132487319Y-92329047D01*
X132487319Y-92329047D02*
X132630176Y-92424285D01*
X132630176Y-92424285D02*
X132725414Y-92519523D01*
X132725414Y-92519523D02*
X132773033Y-92614761D01*
X138326905Y-104277319D02*
X138326905Y-103277319D01*
X138326905Y-103277319D02*
X138565000Y-103277319D01*
X138565000Y-103277319D02*
X138707857Y-103324938D01*
X138707857Y-103324938D02*
X138803095Y-103420176D01*
X138803095Y-103420176D02*
X138850714Y-103515414D01*
X138850714Y-103515414D02*
X138898333Y-103705890D01*
X138898333Y-103705890D02*
X138898333Y-103848747D01*
X138898333Y-103848747D02*
X138850714Y-104039223D01*
X138850714Y-104039223D02*
X138803095Y-104134461D01*
X138803095Y-104134461D02*
X138707857Y-104229700D01*
X138707857Y-104229700D02*
X138565000Y-104277319D01*
X138565000Y-104277319D02*
X138326905Y-104277319D01*
X139850714Y-104277319D02*
X139279286Y-104277319D01*
X139565000Y-104277319D02*
X139565000Y-103277319D01*
X139565000Y-103277319D02*
X139469762Y-103420176D01*
X139469762Y-103420176D02*
X139374524Y-103515414D01*
X139374524Y-103515414D02*
X139279286Y-103563033D01*
X129024166Y-105817319D02*
X129024166Y-106531604D01*
X129024166Y-106531604D02*
X128976547Y-106674461D01*
X128976547Y-106674461D02*
X128881309Y-106769700D01*
X128881309Y-106769700D02*
X128738452Y-106817319D01*
X128738452Y-106817319D02*
X128643214Y-106817319D01*
X129500357Y-106817319D02*
X129500357Y-105817319D01*
X129500357Y-105817319D02*
X129881309Y-105817319D01*
X129881309Y-105817319D02*
X129976547Y-105864938D01*
X129976547Y-105864938D02*
X130024166Y-105912557D01*
X130024166Y-105912557D02*
X130071785Y-106007795D01*
X130071785Y-106007795D02*
X130071785Y-106150652D01*
X130071785Y-106150652D02*
X130024166Y-106245890D01*
X130024166Y-106245890D02*
X129976547Y-106293509D01*
X129976547Y-106293509D02*
X129881309Y-106341128D01*
X129881309Y-106341128D02*
X129500357Y-106341128D01*
X130452738Y-105912557D02*
X130500357Y-105864938D01*
X130500357Y-105864938D02*
X130595595Y-105817319D01*
X130595595Y-105817319D02*
X130833690Y-105817319D01*
X130833690Y-105817319D02*
X130928928Y-105864938D01*
X130928928Y-105864938D02*
X130976547Y-105912557D01*
X130976547Y-105912557D02*
X131024166Y-106007795D01*
X131024166Y-106007795D02*
X131024166Y-106103033D01*
X131024166Y-106103033D02*
X130976547Y-106245890D01*
X130976547Y-106245890D02*
X130405119Y-106817319D01*
X130405119Y-106817319D02*
X131024166Y-106817319D01*
X123975833Y-106817319D02*
X123642500Y-106341128D01*
X123404405Y-106817319D02*
X123404405Y-105817319D01*
X123404405Y-105817319D02*
X123785357Y-105817319D01*
X123785357Y-105817319D02*
X123880595Y-105864938D01*
X123880595Y-105864938D02*
X123928214Y-105912557D01*
X123928214Y-105912557D02*
X123975833Y-106007795D01*
X123975833Y-106007795D02*
X123975833Y-106150652D01*
X123975833Y-106150652D02*
X123928214Y-106245890D01*
X123928214Y-106245890D02*
X123880595Y-106293509D01*
X123880595Y-106293509D02*
X123785357Y-106341128D01*
X123785357Y-106341128D02*
X123404405Y-106341128D01*
X124928214Y-106817319D02*
X124356786Y-106817319D01*
X124642500Y-106817319D02*
X124642500Y-105817319D01*
X124642500Y-105817319D02*
X124547262Y-105960176D01*
X124547262Y-105960176D02*
X124452024Y-106055414D01*
X124452024Y-106055414D02*
X124356786Y-106103033D01*
X144187080Y-96051666D02*
X144234700Y-96099285D01*
X144234700Y-96099285D02*
X144282319Y-96242142D01*
X144282319Y-96242142D02*
X144282319Y-96337380D01*
X144282319Y-96337380D02*
X144234700Y-96480237D01*
X144234700Y-96480237D02*
X144139461Y-96575475D01*
X144139461Y-96575475D02*
X144044223Y-96623094D01*
X144044223Y-96623094D02*
X143853747Y-96670713D01*
X143853747Y-96670713D02*
X143710890Y-96670713D01*
X143710890Y-96670713D02*
X143520414Y-96623094D01*
X143520414Y-96623094D02*
X143425176Y-96575475D01*
X143425176Y-96575475D02*
X143329938Y-96480237D01*
X143329938Y-96480237D02*
X143282319Y-96337380D01*
X143282319Y-96337380D02*
X143282319Y-96242142D01*
X143282319Y-96242142D02*
X143329938Y-96099285D01*
X143329938Y-96099285D02*
X143377557Y-96051666D01*
X144282319Y-95099285D02*
X144282319Y-95670713D01*
X144282319Y-95384999D02*
X143282319Y-95384999D01*
X143282319Y-95384999D02*
X143425176Y-95480237D01*
X143425176Y-95480237D02*
X143520414Y-95575475D01*
X143520414Y-95575475D02*
X143568033Y-95670713D01*
X137310833Y-105134580D02*
X137263214Y-105182200D01*
X137263214Y-105182200D02*
X137120357Y-105229819D01*
X137120357Y-105229819D02*
X137025119Y-105229819D01*
X137025119Y-105229819D02*
X136882262Y-105182200D01*
X136882262Y-105182200D02*
X136787024Y-105086961D01*
X136787024Y-105086961D02*
X136739405Y-104991723D01*
X136739405Y-104991723D02*
X136691786Y-104801247D01*
X136691786Y-104801247D02*
X136691786Y-104658390D01*
X136691786Y-104658390D02*
X136739405Y-104467914D01*
X136739405Y-104467914D02*
X136787024Y-104372676D01*
X136787024Y-104372676D02*
X136882262Y-104277438D01*
X136882262Y-104277438D02*
X137025119Y-104229819D01*
X137025119Y-104229819D02*
X137120357Y-104229819D01*
X137120357Y-104229819D02*
X137263214Y-104277438D01*
X137263214Y-104277438D02*
X137310833Y-104325057D01*
X138167976Y-104563152D02*
X138167976Y-105229819D01*
X137929881Y-104182200D02*
X137691786Y-104896485D01*
X137691786Y-104896485D02*
X138310833Y-104896485D01*
X143917319Y-102361904D02*
X144726842Y-102361904D01*
X144726842Y-102361904D02*
X144822080Y-102314285D01*
X144822080Y-102314285D02*
X144869700Y-102266666D01*
X144869700Y-102266666D02*
X144917319Y-102171428D01*
X144917319Y-102171428D02*
X144917319Y-101980952D01*
X144917319Y-101980952D02*
X144869700Y-101885714D01*
X144869700Y-101885714D02*
X144822080Y-101838095D01*
X144822080Y-101838095D02*
X144726842Y-101790476D01*
X144726842Y-101790476D02*
X143917319Y-101790476D01*
X144012557Y-101361904D02*
X143964938Y-101314285D01*
X143964938Y-101314285D02*
X143917319Y-101219047D01*
X143917319Y-101219047D02*
X143917319Y-100980952D01*
X143917319Y-100980952D02*
X143964938Y-100885714D01*
X143964938Y-100885714D02*
X144012557Y-100838095D01*
X144012557Y-100838095D02*
X144107795Y-100790476D01*
X144107795Y-100790476D02*
X144203033Y-100790476D01*
X144203033Y-100790476D02*
X144345890Y-100838095D01*
X144345890Y-100838095D02*
X144917319Y-101409523D01*
X144917319Y-101409523D02*
X144917319Y-100790476D01*
X134135833Y-105134580D02*
X134088214Y-105182200D01*
X134088214Y-105182200D02*
X133945357Y-105229819D01*
X133945357Y-105229819D02*
X133850119Y-105229819D01*
X133850119Y-105229819D02*
X133707262Y-105182200D01*
X133707262Y-105182200D02*
X133612024Y-105086961D01*
X133612024Y-105086961D02*
X133564405Y-104991723D01*
X133564405Y-104991723D02*
X133516786Y-104801247D01*
X133516786Y-104801247D02*
X133516786Y-104658390D01*
X133516786Y-104658390D02*
X133564405Y-104467914D01*
X133564405Y-104467914D02*
X133612024Y-104372676D01*
X133612024Y-104372676D02*
X133707262Y-104277438D01*
X133707262Y-104277438D02*
X133850119Y-104229819D01*
X133850119Y-104229819D02*
X133945357Y-104229819D01*
X133945357Y-104229819D02*
X134088214Y-104277438D01*
X134088214Y-104277438D02*
X134135833Y-104325057D01*
X134516786Y-104325057D02*
X134564405Y-104277438D01*
X134564405Y-104277438D02*
X134659643Y-104229819D01*
X134659643Y-104229819D02*
X134897738Y-104229819D01*
X134897738Y-104229819D02*
X134992976Y-104277438D01*
X134992976Y-104277438D02*
X135040595Y-104325057D01*
X135040595Y-104325057D02*
X135088214Y-104420295D01*
X135088214Y-104420295D02*
X135088214Y-104515533D01*
X135088214Y-104515533D02*
X135040595Y-104658390D01*
X135040595Y-104658390D02*
X134469167Y-105229819D01*
X134469167Y-105229819D02*
X135088214Y-105229819D01*
X131534819Y-100528333D02*
X132249104Y-100528333D01*
X132249104Y-100528333D02*
X132391961Y-100575952D01*
X132391961Y-100575952D02*
X132487200Y-100671190D01*
X132487200Y-100671190D02*
X132534819Y-100814047D01*
X132534819Y-100814047D02*
X132534819Y-100909285D01*
X132534819Y-100052142D02*
X131534819Y-100052142D01*
X131534819Y-100052142D02*
X131534819Y-99671190D01*
X131534819Y-99671190D02*
X131582438Y-99575952D01*
X131582438Y-99575952D02*
X131630057Y-99528333D01*
X131630057Y-99528333D02*
X131725295Y-99480714D01*
X131725295Y-99480714D02*
X131868152Y-99480714D01*
X131868152Y-99480714D02*
X131963390Y-99528333D01*
X131963390Y-99528333D02*
X132011009Y-99575952D01*
X132011009Y-99575952D02*
X132058628Y-99671190D01*
X132058628Y-99671190D02*
X132058628Y-100052142D01*
X132534819Y-98528333D02*
X132534819Y-99099761D01*
X132534819Y-98814047D02*
X131534819Y-98814047D01*
X131534819Y-98814047D02*
X131677676Y-98909285D01*
X131677676Y-98909285D02*
X131772914Y-99004523D01*
X131772914Y-99004523D02*
X131820533Y-99099761D01*
X132279580Y-95734166D02*
X132327200Y-95781785D01*
X132327200Y-95781785D02*
X132374819Y-95924642D01*
X132374819Y-95924642D02*
X132374819Y-96019880D01*
X132374819Y-96019880D02*
X132327200Y-96162737D01*
X132327200Y-96162737D02*
X132231961Y-96257975D01*
X132231961Y-96257975D02*
X132136723Y-96305594D01*
X132136723Y-96305594D02*
X131946247Y-96353213D01*
X131946247Y-96353213D02*
X131803390Y-96353213D01*
X131803390Y-96353213D02*
X131612914Y-96305594D01*
X131612914Y-96305594D02*
X131517676Y-96257975D01*
X131517676Y-96257975D02*
X131422438Y-96162737D01*
X131422438Y-96162737D02*
X131374819Y-96019880D01*
X131374819Y-96019880D02*
X131374819Y-95924642D01*
X131374819Y-95924642D02*
X131422438Y-95781785D01*
X131422438Y-95781785D02*
X131470057Y-95734166D01*
X131374819Y-95400832D02*
X131374819Y-94781785D01*
X131374819Y-94781785D02*
X131755771Y-95115118D01*
X131755771Y-95115118D02*
X131755771Y-94972261D01*
X131755771Y-94972261D02*
X131803390Y-94877023D01*
X131803390Y-94877023D02*
X131851009Y-94829404D01*
X131851009Y-94829404D02*
X131946247Y-94781785D01*
X131946247Y-94781785D02*
X132184342Y-94781785D01*
X132184342Y-94781785D02*
X132279580Y-94829404D01*
X132279580Y-94829404D02*
X132327200Y-94877023D01*
X132327200Y-94877023D02*
X132374819Y-94972261D01*
X132374819Y-94972261D02*
X132374819Y-95257975D01*
X132374819Y-95257975D02*
X132327200Y-95353213D01*
X132327200Y-95353213D02*
X132279580Y-95400832D01*
D12*
X136730000Y-101662776D02*
X136730000Y-102172224D01*
X135685000Y-101662776D02*
X135685000Y-102172224D01*
X110932500Y-104042500D02*
X116742500Y-104042500D01*
X110932500Y-104042500D02*
X110932500Y-85822500D01*
X130852500Y-104042500D02*
X131152500Y-104042500D01*
X131152500Y-104042500D02*
X131152500Y-85822500D01*
X110932500Y-85822500D02*
X117432500Y-85822500D01*
X130852500Y-85822500D02*
X131152500Y-85822500D01*
X117442500Y-104532500D02*
X116942500Y-104032500D01*
X117442500Y-104032500D01*
X117442500Y-104532500D01*
G36*
X117442500Y-104532500D02*
G01*
X116942500Y-104032500D01*
X117442500Y-104032500D01*
X117442500Y-104532500D01*
G37*
D13*
X127635000Y-107696000D02*
X156845000Y-107696000D01*
X156845000Y-82804000D02*
X127635000Y-82804000D01*
X156845000Y-82804000D02*
X156845000Y-107696000D01*
D12*
X134047776Y-83615000D02*
X134557224Y-83615000D01*
X134047776Y-84660000D02*
X134557224Y-84660000D01*
X134047776Y-85520000D02*
X134557224Y-85520000D01*
X134047776Y-86565000D02*
X134557224Y-86565000D01*
X142820000Y-91817500D02*
X142820000Y-90487500D01*
X144150000Y-91817500D02*
X142820000Y-91817500D01*
X145420000Y-91817500D02*
X155640000Y-91817500D01*
X145420000Y-91817500D02*
X145420000Y-89157500D01*
X155640000Y-91817500D02*
X155640000Y-89157500D01*
X145420000Y-89157500D02*
X155640000Y-89157500D01*
X132655000Y-91817500D02*
X132655000Y-90487500D01*
X133985000Y-91817500D02*
X132655000Y-91817500D01*
X135255000Y-91817500D02*
X140395000Y-91817500D01*
X135255000Y-91817500D02*
X135255000Y-89157500D01*
X140395000Y-91817500D02*
X140395000Y-89157500D01*
X135255000Y-89157500D02*
X140395000Y-89157500D01*
X142695000Y-102917500D02*
X142695000Y-100917500D01*
X142695000Y-102917500D02*
X138685000Y-102917500D01*
X142695000Y-100917500D02*
X138685000Y-100917500D01*
X128400000Y-106662500D02*
G75*
G02*
X127700000Y-107362500I-699999J-1D01*
G01*
X127700000Y-105362500D02*
G75*
G02*
X128400000Y-106062500I1J-699999D01*
G01*
X126300000Y-107362500D02*
G75*
G02*
X125600000Y-106662500I0J700000D01*
G01*
X125600000Y-106062500D02*
G75*
G02*
X126300000Y-105362500I700000J0D01*
G01*
X128400000Y-106062500D02*
X128400000Y-106662500D01*
X127700000Y-107362500D02*
X126300000Y-107362500D01*
X126300000Y-105362500D02*
X127700000Y-105362500D01*
X125600000Y-106662500D02*
X125600000Y-106062500D01*
X121347776Y-106885000D02*
X121857224Y-106885000D01*
X121347776Y-105840000D02*
X121857224Y-105840000D01*
X143317500Y-98888767D02*
X143317500Y-98596233D01*
X144337500Y-98888767D02*
X144337500Y-98596233D01*
X137331233Y-105535000D02*
X137623767Y-105535000D01*
X137331233Y-106555000D02*
X137623767Y-106555000D01*
X145535000Y-96432500D02*
X145810000Y-96432500D01*
X145535000Y-98742500D02*
X145535000Y-96432500D01*
X145535000Y-98742500D02*
X145535000Y-101052500D01*
X145535000Y-101052500D02*
X145810000Y-101052500D01*
X155455000Y-96432500D02*
X155180000Y-96432500D01*
X155455000Y-98742500D02*
X155455000Y-96432500D01*
X155455000Y-98742500D02*
X155455000Y-101052500D01*
X155455000Y-101052500D02*
X155180000Y-101052500D01*
X145810000Y-101642500D02*
X145480000Y-101882500D01*
X145480000Y-101402500D01*
X145810000Y-101642500D01*
G36*
X145810000Y-101642500D02*
G01*
X145480000Y-101882500D01*
X145480000Y-101402500D01*
X145810000Y-101642500D01*
G37*
X133813767Y-106555000D02*
X133521233Y-106555000D01*
X133813767Y-105535000D02*
X133521233Y-105535000D01*
X134810000Y-96837500D02*
X134810000Y-94227500D01*
X136990000Y-94227500D02*
X137330000Y-94227500D01*
X137330000Y-99447500D02*
X136990000Y-99447500D01*
X139530000Y-94227500D02*
X139870000Y-94227500D01*
X139870000Y-99447500D02*
X139530000Y-99447500D01*
X142050000Y-94227500D02*
X142050000Y-99447500D01*
X132350000Y-102617500D02*
X132350000Y-101217500D01*
X133050000Y-100517500D02*
X133650000Y-100517500D01*
X133650000Y-103317500D02*
X133050000Y-103317500D01*
X134350000Y-101217500D02*
X134350000Y-102617500D01*
X132350000Y-101217500D02*
G75*
G02*
X133050000Y-100517500I700000J0D01*
G01*
X133050000Y-103317500D02*
G75*
G02*
X132350000Y-102617500I-1J699999D01*
G01*
X133650000Y-100517500D02*
G75*
G02*
X134350000Y-101217500I0J-700000D01*
G01*
X134350000Y-102617500D02*
G75*
G02*
X133650000Y-103317500I-699999J-1D01*
G01*
X132840000Y-97073767D02*
X132840000Y-96781233D01*
X133860000Y-97073767D02*
X133860000Y-96781233D01*
%LPC*%
D14*
X136207500Y-101005000D03*
X136207500Y-102830000D03*
D15*
X118142500Y-103682500D03*
X119642500Y-103682500D03*
X121142500Y-103682500D03*
X122642500Y-103682500D03*
X124142500Y-103682500D03*
X125642500Y-103682500D03*
X127142500Y-103682500D03*
X128642500Y-103682500D03*
X130142500Y-103682500D03*
X130142500Y-86182500D03*
X128642500Y-86182500D03*
X127142500Y-86182500D03*
X125642500Y-86182500D03*
X124142500Y-86182500D03*
X122642500Y-86182500D03*
X121142500Y-86182500D03*
X119642500Y-86182500D03*
X118142500Y-86182500D03*
D16*
X123792500Y-95072500D03*
X124892500Y-95072500D03*
X123242500Y-94522500D03*
X124342500Y-94522500D03*
X125442500Y-94522500D03*
X123792500Y-93972500D03*
D17*
X124342500Y-93972500D03*
D16*
X124892500Y-93972500D03*
X123242500Y-93422500D03*
X124342500Y-93422500D03*
X125442500Y-93422500D03*
X123792500Y-92872500D03*
X124892500Y-92872500D03*
D18*
X151130000Y-85090000D03*
X148590000Y-85090000D03*
X146050000Y-85090000D03*
X143510000Y-85090000D03*
X140970000Y-85090000D03*
X140970000Y-105410000D03*
X143510000Y-105410000D03*
X146050000Y-105410000D03*
X148590000Y-105410000D03*
X151130000Y-105410000D03*
D19*
X133390000Y-84137500D03*
X135215000Y-84137500D03*
X133390000Y-86042500D03*
X135215000Y-86042500D03*
D20*
X144150000Y-90487500D03*
D21*
X146690000Y-90487500D03*
X149230000Y-90487500D03*
X151770000Y-90487500D03*
X154310000Y-90487500D03*
D20*
X133985000Y-90487500D03*
D21*
X136525000Y-90487500D03*
X139065000Y-90487500D03*
D22*
X141985000Y-101917500D03*
X138685000Y-101917500D03*
D23*
X126350000Y-106362500D03*
D24*
X127650000Y-106362500D03*
D19*
X122515000Y-106362500D03*
X120690000Y-106362500D03*
D25*
X143827500Y-99605000D03*
X143827500Y-97880000D03*
D26*
X136615000Y-106045000D03*
X138340000Y-106045000D03*
D27*
X146270000Y-101605000D03*
X146920000Y-101605000D03*
X147570000Y-101605000D03*
X148220000Y-101605000D03*
X148870000Y-101605000D03*
X149520000Y-101605000D03*
X150170000Y-101605000D03*
X150820000Y-101605000D03*
X151470000Y-101605000D03*
X152120000Y-101605000D03*
X152770000Y-101605000D03*
X153420000Y-101605000D03*
X154070000Y-101605000D03*
X154720000Y-101605000D03*
X154720000Y-95880000D03*
X154070000Y-95880000D03*
X153420000Y-95880000D03*
X152770000Y-95880000D03*
X152120000Y-95880000D03*
X151470000Y-95880000D03*
X150820000Y-95880000D03*
X150170000Y-95880000D03*
X149520000Y-95880000D03*
X148870000Y-95880000D03*
X148220000Y-95880000D03*
X147570000Y-95880000D03*
X146920000Y-95880000D03*
X146270000Y-95880000D03*
D28*
X134530000Y-106045000D03*
X132805000Y-106045000D03*
D29*
X135890000Y-98937500D03*
X138430000Y-98937500D03*
X140970000Y-98937500D03*
X140970000Y-94737500D03*
X138430000Y-94737500D03*
X135890000Y-94737500D03*
D30*
X133350000Y-102567500D03*
D31*
X133350000Y-101267500D03*
D25*
X133350000Y-97790000D03*
X133350000Y-96065000D03*
%LPD*%
M02*
