M48
; DRILL file {KiCad 8.0.4} date 2024-08-01T12:17:27+0200
; FORMAT={-:-/ absolute / metric / decimal}
; #@! TF.CreationDate,2024-08-01T12:17:27+02:00
; #@! TF.GenerationSoftware,Kicad,Pcbnew,8.0.4
; #@! TF.FileFunction,Plated,1,2,PTH
FMAT,2
METRIC
; #@! TA.AperFunction,Plated,PTH,ViaDrill
T1C0.300
; #@! TA.AperFunction,Plated,PTH,ComponentDrill
T2C0.300
; #@! TA.AperFunction,Plated,PTH,ComponentDrill
T3C0.813
; #@! TA.AperFunction,Plated,PTH,ComponentDrill
T4C1.000
%
G90
G05
T1
X120.968Y-102.235
X121.602Y-107.15
X122.872Y-102.235
X124.142Y-102.235
X124.46Y-106.045
X125.73Y-102.235
X127.0Y-102.235
X128.588Y-102.552
X133.032Y-100.427
X133.35Y-94.615
X134.62Y-97.472
X134.938Y-102.87
X135.572Y-106.997
X136.525Y-86.042
X137.16Y-101.917
X139.065Y-103.822
X142.558Y-94.615
X142.558Y-97.79
X142.875Y-102.87
X143.827Y-100.647
X145.097Y-103.689
X146.05Y-98.742
X146.685Y-98.108
X147.637Y-99.06
X148.255Y-99.58
X148.351Y-97.584
X149.225Y-99.377
X150.495Y-87.312
X150.495Y-93.98
X150.812Y-100.012
X151.968Y-102.855
X152.4Y-99.377
X153.229Y-99.309
X153.972Y-99.721
T2
X123.242Y-93.422
X123.242Y-94.522
X123.792Y-92.873
X123.792Y-93.972
X123.792Y-95.072
X124.343Y-93.422
X124.343Y-94.522
X124.892Y-92.873
X124.892Y-93.972
X124.892Y-95.072
X125.442Y-93.422
X125.442Y-94.522
T3
X140.97Y-85.09
X140.97Y-105.41
X143.51Y-85.09
X143.51Y-105.41
X146.05Y-85.09
X146.05Y-105.41
X148.59Y-85.09
X148.59Y-105.41
X151.13Y-85.09
X151.13Y-105.41
T4
X133.985Y-90.487
X136.525Y-90.487
X139.065Y-90.487
X144.15Y-90.487
X146.69Y-90.487
X149.23Y-90.487
X151.77Y-90.487
X154.31Y-90.487
M30
