%TF.GenerationSoftware,KiCad,Pcbnew,8.0.3*%
%TF.CreationDate,2024-06-16T13:56:39+02:00*%
%TF.ProjectId,UPET-Wifi,55504554-2d57-4696-9669-2e6b69636164,rev?*%
%TF.SameCoordinates,Original*%
%TF.FileFunction,Drillmap*%
%TF.FilePolarity,Positive*%
%FSLAX45Y45*%
G04 Gerber Fmt 4.5, Leading zero omitted, Abs format (unit mm)*
G04 Created by KiCad (PCBNEW 8.0.3) date 2024-06-16 13:56:39*
%MOMM*%
%LPD*%
G01*
G04 APERTURE LIST*
%ADD10C,0.050000*%
%ADD11C,0.200000*%
%ADD12C,0.100000*%
G04 APERTURE END LIST*
D10*
X15621000Y-10795000D02*
X12448500Y-10795000D01*
X12448500Y-8255000D02*
X15621000Y-8255000D01*
X15621000Y-8255000D02*
X15621000Y-10795000D01*
X12448500Y-10795000D02*
X12448500Y-8255000D01*
D11*
D12*
X12558000Y-10240250D02*
X12588000Y-10270250D01*
X12588000Y-10240250D02*
X12558000Y-10270250D01*
X12780250Y-9922750D02*
X12810250Y-9952750D01*
X12810250Y-9922750D02*
X12780250Y-9952750D01*
X12843750Y-9986250D02*
X12873750Y-10016250D01*
X12873750Y-9986250D02*
X12843750Y-10016250D01*
X12843750Y-10208500D02*
X12873750Y-10238500D01*
X12873750Y-10208500D02*
X12843750Y-10238500D01*
X12907250Y-10049750D02*
X12937250Y-10079750D01*
X12937250Y-10049750D02*
X12907250Y-10079750D01*
X13464538Y-9216000D02*
X13494538Y-9246000D01*
X13494538Y-9216000D02*
X13464538Y-9246000D01*
X13637500Y-9256000D02*
X13667500Y-9286000D01*
X13667500Y-9256000D02*
X13637500Y-9286000D01*
X14018500Y-9394500D02*
X14048500Y-9424500D01*
X14048500Y-9394500D02*
X14018500Y-9424500D01*
X14018500Y-9827500D02*
X14048500Y-9857500D01*
X14048500Y-9827500D02*
X14018500Y-9857500D01*
X14082000Y-9319500D02*
X14112000Y-9349500D01*
X14112000Y-9319500D02*
X14082000Y-9349500D01*
X14302750Y-10317962D02*
X14332750Y-10347962D01*
X14332750Y-10317962D02*
X14302750Y-10347962D01*
X14401573Y-10364224D02*
X14431573Y-10394224D01*
X14431573Y-10364224D02*
X14401573Y-10394224D01*
X14653500Y-9256000D02*
X14683500Y-9286000D01*
X14683500Y-9256000D02*
X14653500Y-9286000D01*
X14736223Y-9235750D02*
X14766223Y-9265750D01*
X14766223Y-9235750D02*
X14736223Y-9265750D01*
X14780500Y-8970250D02*
X14810500Y-9000250D01*
X14810500Y-8970250D02*
X14780500Y-9000250D01*
X14818360Y-9257627D02*
X14848360Y-9287627D01*
X14848360Y-9257627D02*
X14818360Y-9287627D01*
X14875750Y-9033750D02*
X14905750Y-9063750D01*
X14905750Y-9033750D02*
X14875750Y-9063750D01*
X14875750Y-9859250D02*
X14905750Y-9889250D01*
X14905750Y-9859250D02*
X14875750Y-9889250D01*
X14875750Y-10303750D02*
X14905750Y-10333750D01*
X14905750Y-10303750D02*
X14875750Y-10333750D01*
X15130923Y-8951803D02*
X15160923Y-8981803D01*
X15160923Y-8951803D02*
X15130923Y-8981803D01*
X15141769Y-9264693D02*
X15171769Y-9294693D01*
X15171769Y-9264693D02*
X15141769Y-9294693D01*
X15161500Y-9097250D02*
X15191500Y-9127250D01*
X15191500Y-9097250D02*
X15161500Y-9127250D01*
X15237526Y-9135263D02*
X15267526Y-9165263D01*
X15267526Y-9135263D02*
X15237526Y-9165263D01*
X15318584Y-9056908D02*
X15348584Y-9086908D01*
X15348584Y-9056908D02*
X15318584Y-9086908D01*
X15374368Y-9210781D02*
X15404368Y-9240781D01*
X15404368Y-9210781D02*
X15374368Y-9240781D01*
X13101250Y-9374000D02*
G75*
G02*
X13071250Y-9374000I-15000J0D01*
G01*
X13071250Y-9374000D02*
G75*
G02*
X13101250Y-9374000I15000J0D01*
G01*
X13101250Y-9484000D02*
G75*
G02*
X13071250Y-9484000I-15000J0D01*
G01*
X13071250Y-9484000D02*
G75*
G02*
X13101250Y-9484000I15000J0D01*
G01*
X13156250Y-9319000D02*
G75*
G02*
X13126250Y-9319000I-15000J0D01*
G01*
X13126250Y-9319000D02*
G75*
G02*
X13156250Y-9319000I15000J0D01*
G01*
X13156250Y-9429000D02*
G75*
G02*
X13126250Y-9429000I-15000J0D01*
G01*
X13126250Y-9429000D02*
G75*
G02*
X13156250Y-9429000I15000J0D01*
G01*
X13156250Y-9539000D02*
G75*
G02*
X13126250Y-9539000I-15000J0D01*
G01*
X13126250Y-9539000D02*
G75*
G02*
X13156250Y-9539000I15000J0D01*
G01*
X13211250Y-9374000D02*
G75*
G02*
X13181250Y-9374000I-15000J0D01*
G01*
X13181250Y-9374000D02*
G75*
G02*
X13211250Y-9374000I15000J0D01*
G01*
X13211250Y-9484000D02*
G75*
G02*
X13181250Y-9484000I-15000J0D01*
G01*
X13181250Y-9484000D02*
G75*
G02*
X13211250Y-9484000I15000J0D01*
G01*
X13266250Y-9319000D02*
G75*
G02*
X13236250Y-9319000I-15000J0D01*
G01*
X13236250Y-9319000D02*
G75*
G02*
X13266250Y-9319000I15000J0D01*
G01*
X13266250Y-9429000D02*
G75*
G02*
X13236250Y-9429000I-15000J0D01*
G01*
X13236250Y-9429000D02*
G75*
G02*
X13266250Y-9429000I15000J0D01*
G01*
X13266250Y-9539000D02*
G75*
G02*
X13236250Y-9539000I-15000J0D01*
G01*
X13236250Y-9539000D02*
G75*
G02*
X13266250Y-9539000I15000J0D01*
G01*
X13321250Y-9374000D02*
G75*
G02*
X13291250Y-9374000I-15000J0D01*
G01*
X13291250Y-9374000D02*
G75*
G02*
X13321250Y-9374000I15000J0D01*
G01*
X13321250Y-9484000D02*
G75*
G02*
X13291250Y-9484000I-15000J0D01*
G01*
X13291250Y-9484000D02*
G75*
G02*
X13321250Y-9484000I15000J0D01*
G01*
X14097000Y-8468360D02*
X14097000Y-8549640D01*
X14056360Y-8509000D02*
X14137640Y-8509000D01*
X14097000Y-10500360D02*
X14097000Y-10581640D01*
X14056360Y-10541000D02*
X14137640Y-10541000D01*
X14351000Y-8468360D02*
X14351000Y-8549640D01*
X14310360Y-8509000D02*
X14391640Y-8509000D01*
X14351000Y-10500360D02*
X14351000Y-10581640D01*
X14310360Y-10541000D02*
X14391640Y-10541000D01*
X14605000Y-8468360D02*
X14605000Y-8549640D01*
X14564360Y-8509000D02*
X14645640Y-8509000D01*
X14605000Y-10500360D02*
X14605000Y-10581640D01*
X14564360Y-10541000D02*
X14645640Y-10541000D01*
X14859000Y-8468360D02*
X14859000Y-8549640D01*
X14818360Y-8509000D02*
X14899640Y-8509000D01*
X14859000Y-10500360D02*
X14859000Y-10581640D01*
X14818360Y-10541000D02*
X14899640Y-10541000D01*
X15113000Y-8468360D02*
X15113000Y-8549640D01*
X15072360Y-8509000D02*
X15153640Y-8509000D01*
X15113000Y-10500360D02*
X15113000Y-10581640D01*
X15072360Y-10541000D02*
X15153640Y-10541000D01*
D11*
X12706777Y-11108984D02*
X12706777Y-10908984D01*
X12706777Y-10908984D02*
X12754396Y-10908984D01*
X12754396Y-10908984D02*
X12782967Y-10918508D01*
X12782967Y-10918508D02*
X12802015Y-10937555D01*
X12802015Y-10937555D02*
X12811539Y-10956603D01*
X12811539Y-10956603D02*
X12821062Y-10994698D01*
X12821062Y-10994698D02*
X12821062Y-11023270D01*
X12821062Y-11023270D02*
X12811539Y-11061365D01*
X12811539Y-11061365D02*
X12802015Y-11080412D01*
X12802015Y-11080412D02*
X12782967Y-11099460D01*
X12782967Y-11099460D02*
X12754396Y-11108984D01*
X12754396Y-11108984D02*
X12706777Y-11108984D01*
X12906777Y-11108984D02*
X12906777Y-10975650D01*
X12906777Y-11013746D02*
X12916301Y-10994698D01*
X12916301Y-10994698D02*
X12925824Y-10985174D01*
X12925824Y-10985174D02*
X12944872Y-10975650D01*
X12944872Y-10975650D02*
X12963920Y-10975650D01*
X13030586Y-11108984D02*
X13030586Y-10975650D01*
X13030586Y-10908984D02*
X13021062Y-10918508D01*
X13021062Y-10918508D02*
X13030586Y-10928031D01*
X13030586Y-10928031D02*
X13040110Y-10918508D01*
X13040110Y-10918508D02*
X13030586Y-10908984D01*
X13030586Y-10908984D02*
X13030586Y-10928031D01*
X13154396Y-11108984D02*
X13135348Y-11099460D01*
X13135348Y-11099460D02*
X13125824Y-11080412D01*
X13125824Y-11080412D02*
X13125824Y-10908984D01*
X13259158Y-11108984D02*
X13240110Y-11099460D01*
X13240110Y-11099460D02*
X13230586Y-11080412D01*
X13230586Y-11080412D02*
X13230586Y-10908984D01*
X13487729Y-11108984D02*
X13487729Y-10908984D01*
X13487729Y-10908984D02*
X13554396Y-11051841D01*
X13554396Y-11051841D02*
X13621062Y-10908984D01*
X13621062Y-10908984D02*
X13621062Y-11108984D01*
X13802015Y-11108984D02*
X13802015Y-11004222D01*
X13802015Y-11004222D02*
X13792491Y-10985174D01*
X13792491Y-10985174D02*
X13773443Y-10975650D01*
X13773443Y-10975650D02*
X13735348Y-10975650D01*
X13735348Y-10975650D02*
X13716301Y-10985174D01*
X13802015Y-11099460D02*
X13782967Y-11108984D01*
X13782967Y-11108984D02*
X13735348Y-11108984D01*
X13735348Y-11108984D02*
X13716301Y-11099460D01*
X13716301Y-11099460D02*
X13706777Y-11080412D01*
X13706777Y-11080412D02*
X13706777Y-11061365D01*
X13706777Y-11061365D02*
X13716301Y-11042317D01*
X13716301Y-11042317D02*
X13735348Y-11032793D01*
X13735348Y-11032793D02*
X13782967Y-11032793D01*
X13782967Y-11032793D02*
X13802015Y-11023270D01*
X13897253Y-10975650D02*
X13897253Y-11175650D01*
X13897253Y-10985174D02*
X13916301Y-10975650D01*
X13916301Y-10975650D02*
X13954396Y-10975650D01*
X13954396Y-10975650D02*
X13973443Y-10985174D01*
X13973443Y-10985174D02*
X13982967Y-10994698D01*
X13982967Y-10994698D02*
X13992491Y-11013746D01*
X13992491Y-11013746D02*
X13992491Y-11070889D01*
X13992491Y-11070889D02*
X13982967Y-11089936D01*
X13982967Y-11089936D02*
X13973443Y-11099460D01*
X13973443Y-11099460D02*
X13954396Y-11108984D01*
X13954396Y-11108984D02*
X13916301Y-11108984D01*
X13916301Y-11108984D02*
X13897253Y-11099460D01*
X14078205Y-11089936D02*
X14087729Y-11099460D01*
X14087729Y-11099460D02*
X14078205Y-11108984D01*
X14078205Y-11108984D02*
X14068682Y-11099460D01*
X14068682Y-11099460D02*
X14078205Y-11089936D01*
X14078205Y-11089936D02*
X14078205Y-11108984D01*
X14078205Y-10985174D02*
X14087729Y-10994698D01*
X14087729Y-10994698D02*
X14078205Y-11004222D01*
X14078205Y-11004222D02*
X14068682Y-10994698D01*
X14068682Y-10994698D02*
X14078205Y-10985174D01*
X14078205Y-10985174D02*
X14078205Y-11004222D01*
D12*
X12416000Y-11422500D02*
X12446000Y-11452500D01*
X12446000Y-11422500D02*
X12416000Y-11452500D01*
D11*
X12744872Y-11328984D02*
X12763920Y-11328984D01*
X12763920Y-11328984D02*
X12782967Y-11338508D01*
X12782967Y-11338508D02*
X12792491Y-11348031D01*
X12792491Y-11348031D02*
X12802015Y-11367079D01*
X12802015Y-11367079D02*
X12811539Y-11405174D01*
X12811539Y-11405174D02*
X12811539Y-11452793D01*
X12811539Y-11452793D02*
X12802015Y-11490888D01*
X12802015Y-11490888D02*
X12792491Y-11509936D01*
X12792491Y-11509936D02*
X12782967Y-11519460D01*
X12782967Y-11519460D02*
X12763920Y-11528984D01*
X12763920Y-11528984D02*
X12744872Y-11528984D01*
X12744872Y-11528984D02*
X12725824Y-11519460D01*
X12725824Y-11519460D02*
X12716301Y-11509936D01*
X12716301Y-11509936D02*
X12706777Y-11490888D01*
X12706777Y-11490888D02*
X12697253Y-11452793D01*
X12697253Y-11452793D02*
X12697253Y-11405174D01*
X12697253Y-11405174D02*
X12706777Y-11367079D01*
X12706777Y-11367079D02*
X12716301Y-11348031D01*
X12716301Y-11348031D02*
X12725824Y-11338508D01*
X12725824Y-11338508D02*
X12744872Y-11328984D01*
X12897253Y-11509936D02*
X12906777Y-11519460D01*
X12906777Y-11519460D02*
X12897253Y-11528984D01*
X12897253Y-11528984D02*
X12887729Y-11519460D01*
X12887729Y-11519460D02*
X12897253Y-11509936D01*
X12897253Y-11509936D02*
X12897253Y-11528984D01*
X12973443Y-11328984D02*
X13097253Y-11328984D01*
X13097253Y-11328984D02*
X13030586Y-11405174D01*
X13030586Y-11405174D02*
X13059158Y-11405174D01*
X13059158Y-11405174D02*
X13078205Y-11414698D01*
X13078205Y-11414698D02*
X13087729Y-11424222D01*
X13087729Y-11424222D02*
X13097253Y-11443269D01*
X13097253Y-11443269D02*
X13097253Y-11490888D01*
X13097253Y-11490888D02*
X13087729Y-11509936D01*
X13087729Y-11509936D02*
X13078205Y-11519460D01*
X13078205Y-11519460D02*
X13059158Y-11528984D01*
X13059158Y-11528984D02*
X13002015Y-11528984D01*
X13002015Y-11528984D02*
X12982967Y-11519460D01*
X12982967Y-11519460D02*
X12973443Y-11509936D01*
X13221062Y-11328984D02*
X13240110Y-11328984D01*
X13240110Y-11328984D02*
X13259158Y-11338508D01*
X13259158Y-11338508D02*
X13268682Y-11348031D01*
X13268682Y-11348031D02*
X13278205Y-11367079D01*
X13278205Y-11367079D02*
X13287729Y-11405174D01*
X13287729Y-11405174D02*
X13287729Y-11452793D01*
X13287729Y-11452793D02*
X13278205Y-11490888D01*
X13278205Y-11490888D02*
X13268682Y-11509936D01*
X13268682Y-11509936D02*
X13259158Y-11519460D01*
X13259158Y-11519460D02*
X13240110Y-11528984D01*
X13240110Y-11528984D02*
X13221062Y-11528984D01*
X13221062Y-11528984D02*
X13202015Y-11519460D01*
X13202015Y-11519460D02*
X13192491Y-11509936D01*
X13192491Y-11509936D02*
X13182967Y-11490888D01*
X13182967Y-11490888D02*
X13173443Y-11452793D01*
X13173443Y-11452793D02*
X13173443Y-11405174D01*
X13173443Y-11405174D02*
X13182967Y-11367079D01*
X13182967Y-11367079D02*
X13192491Y-11348031D01*
X13192491Y-11348031D02*
X13202015Y-11338508D01*
X13202015Y-11338508D02*
X13221062Y-11328984D01*
X13411539Y-11328984D02*
X13430586Y-11328984D01*
X13430586Y-11328984D02*
X13449634Y-11338508D01*
X13449634Y-11338508D02*
X13459158Y-11348031D01*
X13459158Y-11348031D02*
X13468682Y-11367079D01*
X13468682Y-11367079D02*
X13478205Y-11405174D01*
X13478205Y-11405174D02*
X13478205Y-11452793D01*
X13478205Y-11452793D02*
X13468682Y-11490888D01*
X13468682Y-11490888D02*
X13459158Y-11509936D01*
X13459158Y-11509936D02*
X13449634Y-11519460D01*
X13449634Y-11519460D02*
X13430586Y-11528984D01*
X13430586Y-11528984D02*
X13411539Y-11528984D01*
X13411539Y-11528984D02*
X13392491Y-11519460D01*
X13392491Y-11519460D02*
X13382967Y-11509936D01*
X13382967Y-11509936D02*
X13373443Y-11490888D01*
X13373443Y-11490888D02*
X13363920Y-11452793D01*
X13363920Y-11452793D02*
X13363920Y-11405174D01*
X13363920Y-11405174D02*
X13373443Y-11367079D01*
X13373443Y-11367079D02*
X13382967Y-11348031D01*
X13382967Y-11348031D02*
X13392491Y-11338508D01*
X13392491Y-11338508D02*
X13411539Y-11328984D01*
X13563920Y-11528984D02*
X13563920Y-11395650D01*
X13563920Y-11414698D02*
X13573443Y-11405174D01*
X13573443Y-11405174D02*
X13592491Y-11395650D01*
X13592491Y-11395650D02*
X13621063Y-11395650D01*
X13621063Y-11395650D02*
X13640110Y-11405174D01*
X13640110Y-11405174D02*
X13649634Y-11424222D01*
X13649634Y-11424222D02*
X13649634Y-11528984D01*
X13649634Y-11424222D02*
X13659158Y-11405174D01*
X13659158Y-11405174D02*
X13678205Y-11395650D01*
X13678205Y-11395650D02*
X13706777Y-11395650D01*
X13706777Y-11395650D02*
X13725824Y-11405174D01*
X13725824Y-11405174D02*
X13735348Y-11424222D01*
X13735348Y-11424222D02*
X13735348Y-11528984D01*
X13830586Y-11528984D02*
X13830586Y-11395650D01*
X13830586Y-11414698D02*
X13840110Y-11405174D01*
X13840110Y-11405174D02*
X13859158Y-11395650D01*
X13859158Y-11395650D02*
X13887729Y-11395650D01*
X13887729Y-11395650D02*
X13906777Y-11405174D01*
X13906777Y-11405174D02*
X13916301Y-11424222D01*
X13916301Y-11424222D02*
X13916301Y-11528984D01*
X13916301Y-11424222D02*
X13925824Y-11405174D01*
X13925824Y-11405174D02*
X13944872Y-11395650D01*
X13944872Y-11395650D02*
X13973443Y-11395650D01*
X13973443Y-11395650D02*
X13992491Y-11405174D01*
X13992491Y-11405174D02*
X14002015Y-11424222D01*
X14002015Y-11424222D02*
X14002015Y-11528984D01*
X14392491Y-11319460D02*
X14221063Y-11576603D01*
X14649634Y-11328984D02*
X14668682Y-11328984D01*
X14668682Y-11328984D02*
X14687729Y-11338508D01*
X14687729Y-11338508D02*
X14697253Y-11348031D01*
X14697253Y-11348031D02*
X14706777Y-11367079D01*
X14706777Y-11367079D02*
X14716301Y-11405174D01*
X14716301Y-11405174D02*
X14716301Y-11452793D01*
X14716301Y-11452793D02*
X14706777Y-11490888D01*
X14706777Y-11490888D02*
X14697253Y-11509936D01*
X14697253Y-11509936D02*
X14687729Y-11519460D01*
X14687729Y-11519460D02*
X14668682Y-11528984D01*
X14668682Y-11528984D02*
X14649634Y-11528984D01*
X14649634Y-11528984D02*
X14630586Y-11519460D01*
X14630586Y-11519460D02*
X14621063Y-11509936D01*
X14621063Y-11509936D02*
X14611539Y-11490888D01*
X14611539Y-11490888D02*
X14602015Y-11452793D01*
X14602015Y-11452793D02*
X14602015Y-11405174D01*
X14602015Y-11405174D02*
X14611539Y-11367079D01*
X14611539Y-11367079D02*
X14621063Y-11348031D01*
X14621063Y-11348031D02*
X14630586Y-11338508D01*
X14630586Y-11338508D02*
X14649634Y-11328984D01*
X14802015Y-11509936D02*
X14811539Y-11519460D01*
X14811539Y-11519460D02*
X14802015Y-11528984D01*
X14802015Y-11528984D02*
X14792491Y-11519460D01*
X14792491Y-11519460D02*
X14802015Y-11509936D01*
X14802015Y-11509936D02*
X14802015Y-11528984D01*
X14935348Y-11328984D02*
X14954396Y-11328984D01*
X14954396Y-11328984D02*
X14973444Y-11338508D01*
X14973444Y-11338508D02*
X14982967Y-11348031D01*
X14982967Y-11348031D02*
X14992491Y-11367079D01*
X14992491Y-11367079D02*
X15002015Y-11405174D01*
X15002015Y-11405174D02*
X15002015Y-11452793D01*
X15002015Y-11452793D02*
X14992491Y-11490888D01*
X14992491Y-11490888D02*
X14982967Y-11509936D01*
X14982967Y-11509936D02*
X14973444Y-11519460D01*
X14973444Y-11519460D02*
X14954396Y-11528984D01*
X14954396Y-11528984D02*
X14935348Y-11528984D01*
X14935348Y-11528984D02*
X14916301Y-11519460D01*
X14916301Y-11519460D02*
X14906777Y-11509936D01*
X14906777Y-11509936D02*
X14897253Y-11490888D01*
X14897253Y-11490888D02*
X14887729Y-11452793D01*
X14887729Y-11452793D02*
X14887729Y-11405174D01*
X14887729Y-11405174D02*
X14897253Y-11367079D01*
X14897253Y-11367079D02*
X14906777Y-11348031D01*
X14906777Y-11348031D02*
X14916301Y-11338508D01*
X14916301Y-11338508D02*
X14935348Y-11328984D01*
X15192491Y-11528984D02*
X15078206Y-11528984D01*
X15135348Y-11528984D02*
X15135348Y-11328984D01*
X15135348Y-11328984D02*
X15116301Y-11357555D01*
X15116301Y-11357555D02*
X15097253Y-11376603D01*
X15097253Y-11376603D02*
X15078206Y-11386127D01*
X15382967Y-11528984D02*
X15268682Y-11528984D01*
X15325825Y-11528984D02*
X15325825Y-11328984D01*
X15325825Y-11328984D02*
X15306777Y-11357555D01*
X15306777Y-11357555D02*
X15287729Y-11376603D01*
X15287729Y-11376603D02*
X15268682Y-11386127D01*
X15497253Y-11414698D02*
X15478206Y-11405174D01*
X15478206Y-11405174D02*
X15468682Y-11395650D01*
X15468682Y-11395650D02*
X15459158Y-11376603D01*
X15459158Y-11376603D02*
X15459158Y-11367079D01*
X15459158Y-11367079D02*
X15468682Y-11348031D01*
X15468682Y-11348031D02*
X15478206Y-11338508D01*
X15478206Y-11338508D02*
X15497253Y-11328984D01*
X15497253Y-11328984D02*
X15535348Y-11328984D01*
X15535348Y-11328984D02*
X15554396Y-11338508D01*
X15554396Y-11338508D02*
X15563920Y-11348031D01*
X15563920Y-11348031D02*
X15573444Y-11367079D01*
X15573444Y-11367079D02*
X15573444Y-11376603D01*
X15573444Y-11376603D02*
X15563920Y-11395650D01*
X15563920Y-11395650D02*
X15554396Y-11405174D01*
X15554396Y-11405174D02*
X15535348Y-11414698D01*
X15535348Y-11414698D02*
X15497253Y-11414698D01*
X15497253Y-11414698D02*
X15478206Y-11424222D01*
X15478206Y-11424222D02*
X15468682Y-11433746D01*
X15468682Y-11433746D02*
X15459158Y-11452793D01*
X15459158Y-11452793D02*
X15459158Y-11490888D01*
X15459158Y-11490888D02*
X15468682Y-11509936D01*
X15468682Y-11509936D02*
X15478206Y-11519460D01*
X15478206Y-11519460D02*
X15497253Y-11528984D01*
X15497253Y-11528984D02*
X15535348Y-11528984D01*
X15535348Y-11528984D02*
X15554396Y-11519460D01*
X15554396Y-11519460D02*
X15563920Y-11509936D01*
X15563920Y-11509936D02*
X15573444Y-11490888D01*
X15573444Y-11490888D02*
X15573444Y-11452793D01*
X15573444Y-11452793D02*
X15563920Y-11433746D01*
X15563920Y-11433746D02*
X15554396Y-11424222D01*
X15554396Y-11424222D02*
X15535348Y-11414698D01*
X15649634Y-11328984D02*
X15649634Y-11367079D01*
X15725825Y-11328984D02*
X15725825Y-11367079D01*
X16021063Y-11605174D02*
X16011539Y-11595650D01*
X16011539Y-11595650D02*
X15992491Y-11567079D01*
X15992491Y-11567079D02*
X15982968Y-11548031D01*
X15982968Y-11548031D02*
X15973444Y-11519460D01*
X15973444Y-11519460D02*
X15963920Y-11471841D01*
X15963920Y-11471841D02*
X15963920Y-11433746D01*
X15963920Y-11433746D02*
X15973444Y-11386127D01*
X15973444Y-11386127D02*
X15982968Y-11357555D01*
X15982968Y-11357555D02*
X15992491Y-11338508D01*
X15992491Y-11338508D02*
X16011539Y-11309936D01*
X16011539Y-11309936D02*
X16021063Y-11300412D01*
X16087729Y-11348031D02*
X16097253Y-11338508D01*
X16097253Y-11338508D02*
X16116301Y-11328984D01*
X16116301Y-11328984D02*
X16163920Y-11328984D01*
X16163920Y-11328984D02*
X16182968Y-11338508D01*
X16182968Y-11338508D02*
X16192491Y-11348031D01*
X16192491Y-11348031D02*
X16202015Y-11367079D01*
X16202015Y-11367079D02*
X16202015Y-11386127D01*
X16202015Y-11386127D02*
X16192491Y-11414698D01*
X16192491Y-11414698D02*
X16078206Y-11528984D01*
X16078206Y-11528984D02*
X16202015Y-11528984D01*
X16382968Y-11328984D02*
X16287729Y-11328984D01*
X16287729Y-11328984D02*
X16278206Y-11424222D01*
X16278206Y-11424222D02*
X16287729Y-11414698D01*
X16287729Y-11414698D02*
X16306777Y-11405174D01*
X16306777Y-11405174D02*
X16354396Y-11405174D01*
X16354396Y-11405174D02*
X16373444Y-11414698D01*
X16373444Y-11414698D02*
X16382968Y-11424222D01*
X16382968Y-11424222D02*
X16392491Y-11443269D01*
X16392491Y-11443269D02*
X16392491Y-11490888D01*
X16392491Y-11490888D02*
X16382968Y-11509936D01*
X16382968Y-11509936D02*
X16373444Y-11519460D01*
X16373444Y-11519460D02*
X16354396Y-11528984D01*
X16354396Y-11528984D02*
X16306777Y-11528984D01*
X16306777Y-11528984D02*
X16287729Y-11519460D01*
X16287729Y-11519460D02*
X16278206Y-11509936D01*
X16630587Y-11528984D02*
X16630587Y-11328984D01*
X16716301Y-11528984D02*
X16716301Y-11424222D01*
X16716301Y-11424222D02*
X16706777Y-11405174D01*
X16706777Y-11405174D02*
X16687730Y-11395650D01*
X16687730Y-11395650D02*
X16659158Y-11395650D01*
X16659158Y-11395650D02*
X16640110Y-11405174D01*
X16640110Y-11405174D02*
X16630587Y-11414698D01*
X16840111Y-11528984D02*
X16821063Y-11519460D01*
X16821063Y-11519460D02*
X16811539Y-11509936D01*
X16811539Y-11509936D02*
X16802015Y-11490888D01*
X16802015Y-11490888D02*
X16802015Y-11433746D01*
X16802015Y-11433746D02*
X16811539Y-11414698D01*
X16811539Y-11414698D02*
X16821063Y-11405174D01*
X16821063Y-11405174D02*
X16840111Y-11395650D01*
X16840111Y-11395650D02*
X16868682Y-11395650D01*
X16868682Y-11395650D02*
X16887730Y-11405174D01*
X16887730Y-11405174D02*
X16897253Y-11414698D01*
X16897253Y-11414698D02*
X16906777Y-11433746D01*
X16906777Y-11433746D02*
X16906777Y-11490888D01*
X16906777Y-11490888D02*
X16897253Y-11509936D01*
X16897253Y-11509936D02*
X16887730Y-11519460D01*
X16887730Y-11519460D02*
X16868682Y-11528984D01*
X16868682Y-11528984D02*
X16840111Y-11528984D01*
X17021063Y-11528984D02*
X17002015Y-11519460D01*
X17002015Y-11519460D02*
X16992492Y-11500412D01*
X16992492Y-11500412D02*
X16992492Y-11328984D01*
X17173444Y-11519460D02*
X17154396Y-11528984D01*
X17154396Y-11528984D02*
X17116301Y-11528984D01*
X17116301Y-11528984D02*
X17097253Y-11519460D01*
X17097253Y-11519460D02*
X17087730Y-11500412D01*
X17087730Y-11500412D02*
X17087730Y-11424222D01*
X17087730Y-11424222D02*
X17097253Y-11405174D01*
X17097253Y-11405174D02*
X17116301Y-11395650D01*
X17116301Y-11395650D02*
X17154396Y-11395650D01*
X17154396Y-11395650D02*
X17173444Y-11405174D01*
X17173444Y-11405174D02*
X17182968Y-11424222D01*
X17182968Y-11424222D02*
X17182968Y-11443269D01*
X17182968Y-11443269D02*
X17087730Y-11462317D01*
X17259158Y-11519460D02*
X17278206Y-11528984D01*
X17278206Y-11528984D02*
X17316301Y-11528984D01*
X17316301Y-11528984D02*
X17335349Y-11519460D01*
X17335349Y-11519460D02*
X17344873Y-11500412D01*
X17344873Y-11500412D02*
X17344873Y-11490888D01*
X17344873Y-11490888D02*
X17335349Y-11471841D01*
X17335349Y-11471841D02*
X17316301Y-11462317D01*
X17316301Y-11462317D02*
X17287730Y-11462317D01*
X17287730Y-11462317D02*
X17268682Y-11452793D01*
X17268682Y-11452793D02*
X17259158Y-11433746D01*
X17259158Y-11433746D02*
X17259158Y-11424222D01*
X17259158Y-11424222D02*
X17268682Y-11405174D01*
X17268682Y-11405174D02*
X17287730Y-11395650D01*
X17287730Y-11395650D02*
X17316301Y-11395650D01*
X17316301Y-11395650D02*
X17335349Y-11405174D01*
X17411539Y-11605174D02*
X17421063Y-11595650D01*
X17421063Y-11595650D02*
X17440111Y-11567079D01*
X17440111Y-11567079D02*
X17449634Y-11548031D01*
X17449634Y-11548031D02*
X17459158Y-11519460D01*
X17459158Y-11519460D02*
X17468682Y-11471841D01*
X17468682Y-11471841D02*
X17468682Y-11433746D01*
X17468682Y-11433746D02*
X17459158Y-11386127D01*
X17459158Y-11386127D02*
X17449634Y-11357555D01*
X17449634Y-11357555D02*
X17440111Y-11338508D01*
X17440111Y-11338508D02*
X17421063Y-11309936D01*
X17421063Y-11309936D02*
X17411539Y-11300412D01*
D12*
X12446000Y-11701500D02*
G75*
G02*
X12416000Y-11701500I-15000J0D01*
G01*
X12416000Y-11701500D02*
G75*
G02*
X12446000Y-11701500I15000J0D01*
G01*
D11*
X12744872Y-11592984D02*
X12763920Y-11592984D01*
X12763920Y-11592984D02*
X12782967Y-11602508D01*
X12782967Y-11602508D02*
X12792491Y-11612031D01*
X12792491Y-11612031D02*
X12802015Y-11631079D01*
X12802015Y-11631079D02*
X12811539Y-11669174D01*
X12811539Y-11669174D02*
X12811539Y-11716793D01*
X12811539Y-11716793D02*
X12802015Y-11754888D01*
X12802015Y-11754888D02*
X12792491Y-11773936D01*
X12792491Y-11773936D02*
X12782967Y-11783460D01*
X12782967Y-11783460D02*
X12763920Y-11792984D01*
X12763920Y-11792984D02*
X12744872Y-11792984D01*
X12744872Y-11792984D02*
X12725824Y-11783460D01*
X12725824Y-11783460D02*
X12716301Y-11773936D01*
X12716301Y-11773936D02*
X12706777Y-11754888D01*
X12706777Y-11754888D02*
X12697253Y-11716793D01*
X12697253Y-11716793D02*
X12697253Y-11669174D01*
X12697253Y-11669174D02*
X12706777Y-11631079D01*
X12706777Y-11631079D02*
X12716301Y-11612031D01*
X12716301Y-11612031D02*
X12725824Y-11602508D01*
X12725824Y-11602508D02*
X12744872Y-11592984D01*
X12897253Y-11773936D02*
X12906777Y-11783460D01*
X12906777Y-11783460D02*
X12897253Y-11792984D01*
X12897253Y-11792984D02*
X12887729Y-11783460D01*
X12887729Y-11783460D02*
X12897253Y-11773936D01*
X12897253Y-11773936D02*
X12897253Y-11792984D01*
X12973443Y-11592984D02*
X13097253Y-11592984D01*
X13097253Y-11592984D02*
X13030586Y-11669174D01*
X13030586Y-11669174D02*
X13059158Y-11669174D01*
X13059158Y-11669174D02*
X13078205Y-11678698D01*
X13078205Y-11678698D02*
X13087729Y-11688222D01*
X13087729Y-11688222D02*
X13097253Y-11707269D01*
X13097253Y-11707269D02*
X13097253Y-11754888D01*
X13097253Y-11754888D02*
X13087729Y-11773936D01*
X13087729Y-11773936D02*
X13078205Y-11783460D01*
X13078205Y-11783460D02*
X13059158Y-11792984D01*
X13059158Y-11792984D02*
X13002015Y-11792984D01*
X13002015Y-11792984D02*
X12982967Y-11783460D01*
X12982967Y-11783460D02*
X12973443Y-11773936D01*
X13221062Y-11592984D02*
X13240110Y-11592984D01*
X13240110Y-11592984D02*
X13259158Y-11602508D01*
X13259158Y-11602508D02*
X13268682Y-11612031D01*
X13268682Y-11612031D02*
X13278205Y-11631079D01*
X13278205Y-11631079D02*
X13287729Y-11669174D01*
X13287729Y-11669174D02*
X13287729Y-11716793D01*
X13287729Y-11716793D02*
X13278205Y-11754888D01*
X13278205Y-11754888D02*
X13268682Y-11773936D01*
X13268682Y-11773936D02*
X13259158Y-11783460D01*
X13259158Y-11783460D02*
X13240110Y-11792984D01*
X13240110Y-11792984D02*
X13221062Y-11792984D01*
X13221062Y-11792984D02*
X13202015Y-11783460D01*
X13202015Y-11783460D02*
X13192491Y-11773936D01*
X13192491Y-11773936D02*
X13182967Y-11754888D01*
X13182967Y-11754888D02*
X13173443Y-11716793D01*
X13173443Y-11716793D02*
X13173443Y-11669174D01*
X13173443Y-11669174D02*
X13182967Y-11631079D01*
X13182967Y-11631079D02*
X13192491Y-11612031D01*
X13192491Y-11612031D02*
X13202015Y-11602508D01*
X13202015Y-11602508D02*
X13221062Y-11592984D01*
X13411539Y-11592984D02*
X13430586Y-11592984D01*
X13430586Y-11592984D02*
X13449634Y-11602508D01*
X13449634Y-11602508D02*
X13459158Y-11612031D01*
X13459158Y-11612031D02*
X13468682Y-11631079D01*
X13468682Y-11631079D02*
X13478205Y-11669174D01*
X13478205Y-11669174D02*
X13478205Y-11716793D01*
X13478205Y-11716793D02*
X13468682Y-11754888D01*
X13468682Y-11754888D02*
X13459158Y-11773936D01*
X13459158Y-11773936D02*
X13449634Y-11783460D01*
X13449634Y-11783460D02*
X13430586Y-11792984D01*
X13430586Y-11792984D02*
X13411539Y-11792984D01*
X13411539Y-11792984D02*
X13392491Y-11783460D01*
X13392491Y-11783460D02*
X13382967Y-11773936D01*
X13382967Y-11773936D02*
X13373443Y-11754888D01*
X13373443Y-11754888D02*
X13363920Y-11716793D01*
X13363920Y-11716793D02*
X13363920Y-11669174D01*
X13363920Y-11669174D02*
X13373443Y-11631079D01*
X13373443Y-11631079D02*
X13382967Y-11612031D01*
X13382967Y-11612031D02*
X13392491Y-11602508D01*
X13392491Y-11602508D02*
X13411539Y-11592984D01*
X13563920Y-11792984D02*
X13563920Y-11659650D01*
X13563920Y-11678698D02*
X13573443Y-11669174D01*
X13573443Y-11669174D02*
X13592491Y-11659650D01*
X13592491Y-11659650D02*
X13621063Y-11659650D01*
X13621063Y-11659650D02*
X13640110Y-11669174D01*
X13640110Y-11669174D02*
X13649634Y-11688222D01*
X13649634Y-11688222D02*
X13649634Y-11792984D01*
X13649634Y-11688222D02*
X13659158Y-11669174D01*
X13659158Y-11669174D02*
X13678205Y-11659650D01*
X13678205Y-11659650D02*
X13706777Y-11659650D01*
X13706777Y-11659650D02*
X13725824Y-11669174D01*
X13725824Y-11669174D02*
X13735348Y-11688222D01*
X13735348Y-11688222D02*
X13735348Y-11792984D01*
X13830586Y-11792984D02*
X13830586Y-11659650D01*
X13830586Y-11678698D02*
X13840110Y-11669174D01*
X13840110Y-11669174D02*
X13859158Y-11659650D01*
X13859158Y-11659650D02*
X13887729Y-11659650D01*
X13887729Y-11659650D02*
X13906777Y-11669174D01*
X13906777Y-11669174D02*
X13916301Y-11688222D01*
X13916301Y-11688222D02*
X13916301Y-11792984D01*
X13916301Y-11688222D02*
X13925824Y-11669174D01*
X13925824Y-11669174D02*
X13944872Y-11659650D01*
X13944872Y-11659650D02*
X13973443Y-11659650D01*
X13973443Y-11659650D02*
X13992491Y-11669174D01*
X13992491Y-11669174D02*
X14002015Y-11688222D01*
X14002015Y-11688222D02*
X14002015Y-11792984D01*
X14392491Y-11583460D02*
X14221063Y-11840603D01*
X14649634Y-11592984D02*
X14668682Y-11592984D01*
X14668682Y-11592984D02*
X14687729Y-11602508D01*
X14687729Y-11602508D02*
X14697253Y-11612031D01*
X14697253Y-11612031D02*
X14706777Y-11631079D01*
X14706777Y-11631079D02*
X14716301Y-11669174D01*
X14716301Y-11669174D02*
X14716301Y-11716793D01*
X14716301Y-11716793D02*
X14706777Y-11754888D01*
X14706777Y-11754888D02*
X14697253Y-11773936D01*
X14697253Y-11773936D02*
X14687729Y-11783460D01*
X14687729Y-11783460D02*
X14668682Y-11792984D01*
X14668682Y-11792984D02*
X14649634Y-11792984D01*
X14649634Y-11792984D02*
X14630586Y-11783460D01*
X14630586Y-11783460D02*
X14621063Y-11773936D01*
X14621063Y-11773936D02*
X14611539Y-11754888D01*
X14611539Y-11754888D02*
X14602015Y-11716793D01*
X14602015Y-11716793D02*
X14602015Y-11669174D01*
X14602015Y-11669174D02*
X14611539Y-11631079D01*
X14611539Y-11631079D02*
X14621063Y-11612031D01*
X14621063Y-11612031D02*
X14630586Y-11602508D01*
X14630586Y-11602508D02*
X14649634Y-11592984D01*
X14802015Y-11773936D02*
X14811539Y-11783460D01*
X14811539Y-11783460D02*
X14802015Y-11792984D01*
X14802015Y-11792984D02*
X14792491Y-11783460D01*
X14792491Y-11783460D02*
X14802015Y-11773936D01*
X14802015Y-11773936D02*
X14802015Y-11792984D01*
X14935348Y-11592984D02*
X14954396Y-11592984D01*
X14954396Y-11592984D02*
X14973444Y-11602508D01*
X14973444Y-11602508D02*
X14982967Y-11612031D01*
X14982967Y-11612031D02*
X14992491Y-11631079D01*
X14992491Y-11631079D02*
X15002015Y-11669174D01*
X15002015Y-11669174D02*
X15002015Y-11716793D01*
X15002015Y-11716793D02*
X14992491Y-11754888D01*
X14992491Y-11754888D02*
X14982967Y-11773936D01*
X14982967Y-11773936D02*
X14973444Y-11783460D01*
X14973444Y-11783460D02*
X14954396Y-11792984D01*
X14954396Y-11792984D02*
X14935348Y-11792984D01*
X14935348Y-11792984D02*
X14916301Y-11783460D01*
X14916301Y-11783460D02*
X14906777Y-11773936D01*
X14906777Y-11773936D02*
X14897253Y-11754888D01*
X14897253Y-11754888D02*
X14887729Y-11716793D01*
X14887729Y-11716793D02*
X14887729Y-11669174D01*
X14887729Y-11669174D02*
X14897253Y-11631079D01*
X14897253Y-11631079D02*
X14906777Y-11612031D01*
X14906777Y-11612031D02*
X14916301Y-11602508D01*
X14916301Y-11602508D02*
X14935348Y-11592984D01*
X15192491Y-11792984D02*
X15078206Y-11792984D01*
X15135348Y-11792984D02*
X15135348Y-11592984D01*
X15135348Y-11592984D02*
X15116301Y-11621555D01*
X15116301Y-11621555D02*
X15097253Y-11640603D01*
X15097253Y-11640603D02*
X15078206Y-11650127D01*
X15382967Y-11792984D02*
X15268682Y-11792984D01*
X15325825Y-11792984D02*
X15325825Y-11592984D01*
X15325825Y-11592984D02*
X15306777Y-11621555D01*
X15306777Y-11621555D02*
X15287729Y-11640603D01*
X15287729Y-11640603D02*
X15268682Y-11650127D01*
X15497253Y-11678698D02*
X15478206Y-11669174D01*
X15478206Y-11669174D02*
X15468682Y-11659650D01*
X15468682Y-11659650D02*
X15459158Y-11640603D01*
X15459158Y-11640603D02*
X15459158Y-11631079D01*
X15459158Y-11631079D02*
X15468682Y-11612031D01*
X15468682Y-11612031D02*
X15478206Y-11602508D01*
X15478206Y-11602508D02*
X15497253Y-11592984D01*
X15497253Y-11592984D02*
X15535348Y-11592984D01*
X15535348Y-11592984D02*
X15554396Y-11602508D01*
X15554396Y-11602508D02*
X15563920Y-11612031D01*
X15563920Y-11612031D02*
X15573444Y-11631079D01*
X15573444Y-11631079D02*
X15573444Y-11640603D01*
X15573444Y-11640603D02*
X15563920Y-11659650D01*
X15563920Y-11659650D02*
X15554396Y-11669174D01*
X15554396Y-11669174D02*
X15535348Y-11678698D01*
X15535348Y-11678698D02*
X15497253Y-11678698D01*
X15497253Y-11678698D02*
X15478206Y-11688222D01*
X15478206Y-11688222D02*
X15468682Y-11697746D01*
X15468682Y-11697746D02*
X15459158Y-11716793D01*
X15459158Y-11716793D02*
X15459158Y-11754888D01*
X15459158Y-11754888D02*
X15468682Y-11773936D01*
X15468682Y-11773936D02*
X15478206Y-11783460D01*
X15478206Y-11783460D02*
X15497253Y-11792984D01*
X15497253Y-11792984D02*
X15535348Y-11792984D01*
X15535348Y-11792984D02*
X15554396Y-11783460D01*
X15554396Y-11783460D02*
X15563920Y-11773936D01*
X15563920Y-11773936D02*
X15573444Y-11754888D01*
X15573444Y-11754888D02*
X15573444Y-11716793D01*
X15573444Y-11716793D02*
X15563920Y-11697746D01*
X15563920Y-11697746D02*
X15554396Y-11688222D01*
X15554396Y-11688222D02*
X15535348Y-11678698D01*
X15649634Y-11592984D02*
X15649634Y-11631079D01*
X15725825Y-11592984D02*
X15725825Y-11631079D01*
X16021063Y-11869174D02*
X16011539Y-11859650D01*
X16011539Y-11859650D02*
X15992491Y-11831079D01*
X15992491Y-11831079D02*
X15982968Y-11812031D01*
X15982968Y-11812031D02*
X15973444Y-11783460D01*
X15973444Y-11783460D02*
X15963920Y-11735841D01*
X15963920Y-11735841D02*
X15963920Y-11697746D01*
X15963920Y-11697746D02*
X15973444Y-11650127D01*
X15973444Y-11650127D02*
X15982968Y-11621555D01*
X15982968Y-11621555D02*
X15992491Y-11602508D01*
X15992491Y-11602508D02*
X16011539Y-11573936D01*
X16011539Y-11573936D02*
X16021063Y-11564412D01*
X16202015Y-11792984D02*
X16087729Y-11792984D01*
X16144872Y-11792984D02*
X16144872Y-11592984D01*
X16144872Y-11592984D02*
X16125825Y-11621555D01*
X16125825Y-11621555D02*
X16106777Y-11640603D01*
X16106777Y-11640603D02*
X16087729Y-11650127D01*
X16278206Y-11612031D02*
X16287729Y-11602508D01*
X16287729Y-11602508D02*
X16306777Y-11592984D01*
X16306777Y-11592984D02*
X16354396Y-11592984D01*
X16354396Y-11592984D02*
X16373444Y-11602508D01*
X16373444Y-11602508D02*
X16382968Y-11612031D01*
X16382968Y-11612031D02*
X16392491Y-11631079D01*
X16392491Y-11631079D02*
X16392491Y-11650127D01*
X16392491Y-11650127D02*
X16382968Y-11678698D01*
X16382968Y-11678698D02*
X16268682Y-11792984D01*
X16268682Y-11792984D02*
X16392491Y-11792984D01*
X16630587Y-11792984D02*
X16630587Y-11592984D01*
X16716301Y-11792984D02*
X16716301Y-11688222D01*
X16716301Y-11688222D02*
X16706777Y-11669174D01*
X16706777Y-11669174D02*
X16687730Y-11659650D01*
X16687730Y-11659650D02*
X16659158Y-11659650D01*
X16659158Y-11659650D02*
X16640110Y-11669174D01*
X16640110Y-11669174D02*
X16630587Y-11678698D01*
X16840111Y-11792984D02*
X16821063Y-11783460D01*
X16821063Y-11783460D02*
X16811539Y-11773936D01*
X16811539Y-11773936D02*
X16802015Y-11754888D01*
X16802015Y-11754888D02*
X16802015Y-11697746D01*
X16802015Y-11697746D02*
X16811539Y-11678698D01*
X16811539Y-11678698D02*
X16821063Y-11669174D01*
X16821063Y-11669174D02*
X16840111Y-11659650D01*
X16840111Y-11659650D02*
X16868682Y-11659650D01*
X16868682Y-11659650D02*
X16887730Y-11669174D01*
X16887730Y-11669174D02*
X16897253Y-11678698D01*
X16897253Y-11678698D02*
X16906777Y-11697746D01*
X16906777Y-11697746D02*
X16906777Y-11754888D01*
X16906777Y-11754888D02*
X16897253Y-11773936D01*
X16897253Y-11773936D02*
X16887730Y-11783460D01*
X16887730Y-11783460D02*
X16868682Y-11792984D01*
X16868682Y-11792984D02*
X16840111Y-11792984D01*
X17021063Y-11792984D02*
X17002015Y-11783460D01*
X17002015Y-11783460D02*
X16992492Y-11764412D01*
X16992492Y-11764412D02*
X16992492Y-11592984D01*
X17173444Y-11783460D02*
X17154396Y-11792984D01*
X17154396Y-11792984D02*
X17116301Y-11792984D01*
X17116301Y-11792984D02*
X17097253Y-11783460D01*
X17097253Y-11783460D02*
X17087730Y-11764412D01*
X17087730Y-11764412D02*
X17087730Y-11688222D01*
X17087730Y-11688222D02*
X17097253Y-11669174D01*
X17097253Y-11669174D02*
X17116301Y-11659650D01*
X17116301Y-11659650D02*
X17154396Y-11659650D01*
X17154396Y-11659650D02*
X17173444Y-11669174D01*
X17173444Y-11669174D02*
X17182968Y-11688222D01*
X17182968Y-11688222D02*
X17182968Y-11707269D01*
X17182968Y-11707269D02*
X17087730Y-11726317D01*
X17259158Y-11783460D02*
X17278206Y-11792984D01*
X17278206Y-11792984D02*
X17316301Y-11792984D01*
X17316301Y-11792984D02*
X17335349Y-11783460D01*
X17335349Y-11783460D02*
X17344873Y-11764412D01*
X17344873Y-11764412D02*
X17344873Y-11754888D01*
X17344873Y-11754888D02*
X17335349Y-11735841D01*
X17335349Y-11735841D02*
X17316301Y-11726317D01*
X17316301Y-11726317D02*
X17287730Y-11726317D01*
X17287730Y-11726317D02*
X17268682Y-11716793D01*
X17268682Y-11716793D02*
X17259158Y-11697746D01*
X17259158Y-11697746D02*
X17259158Y-11688222D01*
X17259158Y-11688222D02*
X17268682Y-11669174D01*
X17268682Y-11669174D02*
X17287730Y-11659650D01*
X17287730Y-11659650D02*
X17316301Y-11659650D01*
X17316301Y-11659650D02*
X17335349Y-11669174D01*
X17411539Y-11869174D02*
X17421063Y-11859650D01*
X17421063Y-11859650D02*
X17440111Y-11831079D01*
X17440111Y-11831079D02*
X17449634Y-11812031D01*
X17449634Y-11812031D02*
X17459158Y-11783460D01*
X17459158Y-11783460D02*
X17468682Y-11735841D01*
X17468682Y-11735841D02*
X17468682Y-11697746D01*
X17468682Y-11697746D02*
X17459158Y-11650127D01*
X17459158Y-11650127D02*
X17449634Y-11621555D01*
X17449634Y-11621555D02*
X17440111Y-11602508D01*
X17440111Y-11602508D02*
X17421063Y-11573936D01*
X17421063Y-11573936D02*
X17411539Y-11564412D01*
D12*
X12405360Y-11924860D02*
X12405360Y-12006140D01*
X12364720Y-11965500D02*
X12446000Y-11965500D01*
D11*
X12744872Y-11856984D02*
X12763920Y-11856984D01*
X12763920Y-11856984D02*
X12782967Y-11866508D01*
X12782967Y-11866508D02*
X12792491Y-11876031D01*
X12792491Y-11876031D02*
X12802015Y-11895079D01*
X12802015Y-11895079D02*
X12811539Y-11933174D01*
X12811539Y-11933174D02*
X12811539Y-11980793D01*
X12811539Y-11980793D02*
X12802015Y-12018888D01*
X12802015Y-12018888D02*
X12792491Y-12037936D01*
X12792491Y-12037936D02*
X12782967Y-12047460D01*
X12782967Y-12047460D02*
X12763920Y-12056984D01*
X12763920Y-12056984D02*
X12744872Y-12056984D01*
X12744872Y-12056984D02*
X12725824Y-12047460D01*
X12725824Y-12047460D02*
X12716301Y-12037936D01*
X12716301Y-12037936D02*
X12706777Y-12018888D01*
X12706777Y-12018888D02*
X12697253Y-11980793D01*
X12697253Y-11980793D02*
X12697253Y-11933174D01*
X12697253Y-11933174D02*
X12706777Y-11895079D01*
X12706777Y-11895079D02*
X12716301Y-11876031D01*
X12716301Y-11876031D02*
X12725824Y-11866508D01*
X12725824Y-11866508D02*
X12744872Y-11856984D01*
X12897253Y-12037936D02*
X12906777Y-12047460D01*
X12906777Y-12047460D02*
X12897253Y-12056984D01*
X12897253Y-12056984D02*
X12887729Y-12047460D01*
X12887729Y-12047460D02*
X12897253Y-12037936D01*
X12897253Y-12037936D02*
X12897253Y-12056984D01*
X13021062Y-11942698D02*
X13002015Y-11933174D01*
X13002015Y-11933174D02*
X12992491Y-11923650D01*
X12992491Y-11923650D02*
X12982967Y-11904603D01*
X12982967Y-11904603D02*
X12982967Y-11895079D01*
X12982967Y-11895079D02*
X12992491Y-11876031D01*
X12992491Y-11876031D02*
X13002015Y-11866508D01*
X13002015Y-11866508D02*
X13021062Y-11856984D01*
X13021062Y-11856984D02*
X13059158Y-11856984D01*
X13059158Y-11856984D02*
X13078205Y-11866508D01*
X13078205Y-11866508D02*
X13087729Y-11876031D01*
X13087729Y-11876031D02*
X13097253Y-11895079D01*
X13097253Y-11895079D02*
X13097253Y-11904603D01*
X13097253Y-11904603D02*
X13087729Y-11923650D01*
X13087729Y-11923650D02*
X13078205Y-11933174D01*
X13078205Y-11933174D02*
X13059158Y-11942698D01*
X13059158Y-11942698D02*
X13021062Y-11942698D01*
X13021062Y-11942698D02*
X13002015Y-11952222D01*
X13002015Y-11952222D02*
X12992491Y-11961746D01*
X12992491Y-11961746D02*
X12982967Y-11980793D01*
X12982967Y-11980793D02*
X12982967Y-12018888D01*
X12982967Y-12018888D02*
X12992491Y-12037936D01*
X12992491Y-12037936D02*
X13002015Y-12047460D01*
X13002015Y-12047460D02*
X13021062Y-12056984D01*
X13021062Y-12056984D02*
X13059158Y-12056984D01*
X13059158Y-12056984D02*
X13078205Y-12047460D01*
X13078205Y-12047460D02*
X13087729Y-12037936D01*
X13087729Y-12037936D02*
X13097253Y-12018888D01*
X13097253Y-12018888D02*
X13097253Y-11980793D01*
X13097253Y-11980793D02*
X13087729Y-11961746D01*
X13087729Y-11961746D02*
X13078205Y-11952222D01*
X13078205Y-11952222D02*
X13059158Y-11942698D01*
X13287729Y-12056984D02*
X13173443Y-12056984D01*
X13230586Y-12056984D02*
X13230586Y-11856984D01*
X13230586Y-11856984D02*
X13211539Y-11885555D01*
X13211539Y-11885555D02*
X13192491Y-11904603D01*
X13192491Y-11904603D02*
X13173443Y-11914127D01*
X13354396Y-11856984D02*
X13478205Y-11856984D01*
X13478205Y-11856984D02*
X13411539Y-11933174D01*
X13411539Y-11933174D02*
X13440110Y-11933174D01*
X13440110Y-11933174D02*
X13459158Y-11942698D01*
X13459158Y-11942698D02*
X13468682Y-11952222D01*
X13468682Y-11952222D02*
X13478205Y-11971269D01*
X13478205Y-11971269D02*
X13478205Y-12018888D01*
X13478205Y-12018888D02*
X13468682Y-12037936D01*
X13468682Y-12037936D02*
X13459158Y-12047460D01*
X13459158Y-12047460D02*
X13440110Y-12056984D01*
X13440110Y-12056984D02*
X13382967Y-12056984D01*
X13382967Y-12056984D02*
X13363920Y-12047460D01*
X13363920Y-12047460D02*
X13354396Y-12037936D01*
X13563920Y-12056984D02*
X13563920Y-11923650D01*
X13563920Y-11942698D02*
X13573443Y-11933174D01*
X13573443Y-11933174D02*
X13592491Y-11923650D01*
X13592491Y-11923650D02*
X13621063Y-11923650D01*
X13621063Y-11923650D02*
X13640110Y-11933174D01*
X13640110Y-11933174D02*
X13649634Y-11952222D01*
X13649634Y-11952222D02*
X13649634Y-12056984D01*
X13649634Y-11952222D02*
X13659158Y-11933174D01*
X13659158Y-11933174D02*
X13678205Y-11923650D01*
X13678205Y-11923650D02*
X13706777Y-11923650D01*
X13706777Y-11923650D02*
X13725824Y-11933174D01*
X13725824Y-11933174D02*
X13735348Y-11952222D01*
X13735348Y-11952222D02*
X13735348Y-12056984D01*
X13830586Y-12056984D02*
X13830586Y-11923650D01*
X13830586Y-11942698D02*
X13840110Y-11933174D01*
X13840110Y-11933174D02*
X13859158Y-11923650D01*
X13859158Y-11923650D02*
X13887729Y-11923650D01*
X13887729Y-11923650D02*
X13906777Y-11933174D01*
X13906777Y-11933174D02*
X13916301Y-11952222D01*
X13916301Y-11952222D02*
X13916301Y-12056984D01*
X13916301Y-11952222D02*
X13925824Y-11933174D01*
X13925824Y-11933174D02*
X13944872Y-11923650D01*
X13944872Y-11923650D02*
X13973443Y-11923650D01*
X13973443Y-11923650D02*
X13992491Y-11933174D01*
X13992491Y-11933174D02*
X14002015Y-11952222D01*
X14002015Y-11952222D02*
X14002015Y-12056984D01*
X14392491Y-11847460D02*
X14221063Y-12104603D01*
X14649634Y-11856984D02*
X14668682Y-11856984D01*
X14668682Y-11856984D02*
X14687729Y-11866508D01*
X14687729Y-11866508D02*
X14697253Y-11876031D01*
X14697253Y-11876031D02*
X14706777Y-11895079D01*
X14706777Y-11895079D02*
X14716301Y-11933174D01*
X14716301Y-11933174D02*
X14716301Y-11980793D01*
X14716301Y-11980793D02*
X14706777Y-12018888D01*
X14706777Y-12018888D02*
X14697253Y-12037936D01*
X14697253Y-12037936D02*
X14687729Y-12047460D01*
X14687729Y-12047460D02*
X14668682Y-12056984D01*
X14668682Y-12056984D02*
X14649634Y-12056984D01*
X14649634Y-12056984D02*
X14630586Y-12047460D01*
X14630586Y-12047460D02*
X14621063Y-12037936D01*
X14621063Y-12037936D02*
X14611539Y-12018888D01*
X14611539Y-12018888D02*
X14602015Y-11980793D01*
X14602015Y-11980793D02*
X14602015Y-11933174D01*
X14602015Y-11933174D02*
X14611539Y-11895079D01*
X14611539Y-11895079D02*
X14621063Y-11876031D01*
X14621063Y-11876031D02*
X14630586Y-11866508D01*
X14630586Y-11866508D02*
X14649634Y-11856984D01*
X14802015Y-12037936D02*
X14811539Y-12047460D01*
X14811539Y-12047460D02*
X14802015Y-12056984D01*
X14802015Y-12056984D02*
X14792491Y-12047460D01*
X14792491Y-12047460D02*
X14802015Y-12037936D01*
X14802015Y-12037936D02*
X14802015Y-12056984D01*
X14935348Y-11856984D02*
X14954396Y-11856984D01*
X14954396Y-11856984D02*
X14973444Y-11866508D01*
X14973444Y-11866508D02*
X14982967Y-11876031D01*
X14982967Y-11876031D02*
X14992491Y-11895079D01*
X14992491Y-11895079D02*
X15002015Y-11933174D01*
X15002015Y-11933174D02*
X15002015Y-11980793D01*
X15002015Y-11980793D02*
X14992491Y-12018888D01*
X14992491Y-12018888D02*
X14982967Y-12037936D01*
X14982967Y-12037936D02*
X14973444Y-12047460D01*
X14973444Y-12047460D02*
X14954396Y-12056984D01*
X14954396Y-12056984D02*
X14935348Y-12056984D01*
X14935348Y-12056984D02*
X14916301Y-12047460D01*
X14916301Y-12047460D02*
X14906777Y-12037936D01*
X14906777Y-12037936D02*
X14897253Y-12018888D01*
X14897253Y-12018888D02*
X14887729Y-11980793D01*
X14887729Y-11980793D02*
X14887729Y-11933174D01*
X14887729Y-11933174D02*
X14897253Y-11895079D01*
X14897253Y-11895079D02*
X14906777Y-11876031D01*
X14906777Y-11876031D02*
X14916301Y-11866508D01*
X14916301Y-11866508D02*
X14935348Y-11856984D01*
X15068682Y-11856984D02*
X15192491Y-11856984D01*
X15192491Y-11856984D02*
X15125825Y-11933174D01*
X15125825Y-11933174D02*
X15154396Y-11933174D01*
X15154396Y-11933174D02*
X15173444Y-11942698D01*
X15173444Y-11942698D02*
X15182967Y-11952222D01*
X15182967Y-11952222D02*
X15192491Y-11971269D01*
X15192491Y-11971269D02*
X15192491Y-12018888D01*
X15192491Y-12018888D02*
X15182967Y-12037936D01*
X15182967Y-12037936D02*
X15173444Y-12047460D01*
X15173444Y-12047460D02*
X15154396Y-12056984D01*
X15154396Y-12056984D02*
X15097253Y-12056984D01*
X15097253Y-12056984D02*
X15078206Y-12047460D01*
X15078206Y-12047460D02*
X15068682Y-12037936D01*
X15268682Y-11876031D02*
X15278206Y-11866508D01*
X15278206Y-11866508D02*
X15297253Y-11856984D01*
X15297253Y-11856984D02*
X15344872Y-11856984D01*
X15344872Y-11856984D02*
X15363920Y-11866508D01*
X15363920Y-11866508D02*
X15373444Y-11876031D01*
X15373444Y-11876031D02*
X15382967Y-11895079D01*
X15382967Y-11895079D02*
X15382967Y-11914127D01*
X15382967Y-11914127D02*
X15373444Y-11942698D01*
X15373444Y-11942698D02*
X15259158Y-12056984D01*
X15259158Y-12056984D02*
X15382967Y-12056984D01*
X15506777Y-11856984D02*
X15525825Y-11856984D01*
X15525825Y-11856984D02*
X15544872Y-11866508D01*
X15544872Y-11866508D02*
X15554396Y-11876031D01*
X15554396Y-11876031D02*
X15563920Y-11895079D01*
X15563920Y-11895079D02*
X15573444Y-11933174D01*
X15573444Y-11933174D02*
X15573444Y-11980793D01*
X15573444Y-11980793D02*
X15563920Y-12018888D01*
X15563920Y-12018888D02*
X15554396Y-12037936D01*
X15554396Y-12037936D02*
X15544872Y-12047460D01*
X15544872Y-12047460D02*
X15525825Y-12056984D01*
X15525825Y-12056984D02*
X15506777Y-12056984D01*
X15506777Y-12056984D02*
X15487729Y-12047460D01*
X15487729Y-12047460D02*
X15478206Y-12037936D01*
X15478206Y-12037936D02*
X15468682Y-12018888D01*
X15468682Y-12018888D02*
X15459158Y-11980793D01*
X15459158Y-11980793D02*
X15459158Y-11933174D01*
X15459158Y-11933174D02*
X15468682Y-11895079D01*
X15468682Y-11895079D02*
X15478206Y-11876031D01*
X15478206Y-11876031D02*
X15487729Y-11866508D01*
X15487729Y-11866508D02*
X15506777Y-11856984D01*
X15649634Y-11856984D02*
X15649634Y-11895079D01*
X15725825Y-11856984D02*
X15725825Y-11895079D01*
X16021063Y-12133174D02*
X16011539Y-12123650D01*
X16011539Y-12123650D02*
X15992491Y-12095079D01*
X15992491Y-12095079D02*
X15982968Y-12076031D01*
X15982968Y-12076031D02*
X15973444Y-12047460D01*
X15973444Y-12047460D02*
X15963920Y-11999841D01*
X15963920Y-11999841D02*
X15963920Y-11961746D01*
X15963920Y-11961746D02*
X15973444Y-11914127D01*
X15973444Y-11914127D02*
X15982968Y-11885555D01*
X15982968Y-11885555D02*
X15992491Y-11866508D01*
X15992491Y-11866508D02*
X16011539Y-11837936D01*
X16011539Y-11837936D02*
X16021063Y-11828412D01*
X16202015Y-12056984D02*
X16087729Y-12056984D01*
X16144872Y-12056984D02*
X16144872Y-11856984D01*
X16144872Y-11856984D02*
X16125825Y-11885555D01*
X16125825Y-11885555D02*
X16106777Y-11904603D01*
X16106777Y-11904603D02*
X16087729Y-11914127D01*
X16325825Y-11856984D02*
X16344872Y-11856984D01*
X16344872Y-11856984D02*
X16363920Y-11866508D01*
X16363920Y-11866508D02*
X16373444Y-11876031D01*
X16373444Y-11876031D02*
X16382968Y-11895079D01*
X16382968Y-11895079D02*
X16392491Y-11933174D01*
X16392491Y-11933174D02*
X16392491Y-11980793D01*
X16392491Y-11980793D02*
X16382968Y-12018888D01*
X16382968Y-12018888D02*
X16373444Y-12037936D01*
X16373444Y-12037936D02*
X16363920Y-12047460D01*
X16363920Y-12047460D02*
X16344872Y-12056984D01*
X16344872Y-12056984D02*
X16325825Y-12056984D01*
X16325825Y-12056984D02*
X16306777Y-12047460D01*
X16306777Y-12047460D02*
X16297253Y-12037936D01*
X16297253Y-12037936D02*
X16287729Y-12018888D01*
X16287729Y-12018888D02*
X16278206Y-11980793D01*
X16278206Y-11980793D02*
X16278206Y-11933174D01*
X16278206Y-11933174D02*
X16287729Y-11895079D01*
X16287729Y-11895079D02*
X16297253Y-11876031D01*
X16297253Y-11876031D02*
X16306777Y-11866508D01*
X16306777Y-11866508D02*
X16325825Y-11856984D01*
X16630587Y-12056984D02*
X16630587Y-11856984D01*
X16716301Y-12056984D02*
X16716301Y-11952222D01*
X16716301Y-11952222D02*
X16706777Y-11933174D01*
X16706777Y-11933174D02*
X16687730Y-11923650D01*
X16687730Y-11923650D02*
X16659158Y-11923650D01*
X16659158Y-11923650D02*
X16640110Y-11933174D01*
X16640110Y-11933174D02*
X16630587Y-11942698D01*
X16840111Y-12056984D02*
X16821063Y-12047460D01*
X16821063Y-12047460D02*
X16811539Y-12037936D01*
X16811539Y-12037936D02*
X16802015Y-12018888D01*
X16802015Y-12018888D02*
X16802015Y-11961746D01*
X16802015Y-11961746D02*
X16811539Y-11942698D01*
X16811539Y-11942698D02*
X16821063Y-11933174D01*
X16821063Y-11933174D02*
X16840111Y-11923650D01*
X16840111Y-11923650D02*
X16868682Y-11923650D01*
X16868682Y-11923650D02*
X16887730Y-11933174D01*
X16887730Y-11933174D02*
X16897253Y-11942698D01*
X16897253Y-11942698D02*
X16906777Y-11961746D01*
X16906777Y-11961746D02*
X16906777Y-12018888D01*
X16906777Y-12018888D02*
X16897253Y-12037936D01*
X16897253Y-12037936D02*
X16887730Y-12047460D01*
X16887730Y-12047460D02*
X16868682Y-12056984D01*
X16868682Y-12056984D02*
X16840111Y-12056984D01*
X17021063Y-12056984D02*
X17002015Y-12047460D01*
X17002015Y-12047460D02*
X16992492Y-12028412D01*
X16992492Y-12028412D02*
X16992492Y-11856984D01*
X17173444Y-12047460D02*
X17154396Y-12056984D01*
X17154396Y-12056984D02*
X17116301Y-12056984D01*
X17116301Y-12056984D02*
X17097253Y-12047460D01*
X17097253Y-12047460D02*
X17087730Y-12028412D01*
X17087730Y-12028412D02*
X17087730Y-11952222D01*
X17087730Y-11952222D02*
X17097253Y-11933174D01*
X17097253Y-11933174D02*
X17116301Y-11923650D01*
X17116301Y-11923650D02*
X17154396Y-11923650D01*
X17154396Y-11923650D02*
X17173444Y-11933174D01*
X17173444Y-11933174D02*
X17182968Y-11952222D01*
X17182968Y-11952222D02*
X17182968Y-11971269D01*
X17182968Y-11971269D02*
X17087730Y-11990317D01*
X17259158Y-12047460D02*
X17278206Y-12056984D01*
X17278206Y-12056984D02*
X17316301Y-12056984D01*
X17316301Y-12056984D02*
X17335349Y-12047460D01*
X17335349Y-12047460D02*
X17344873Y-12028412D01*
X17344873Y-12028412D02*
X17344873Y-12018888D01*
X17344873Y-12018888D02*
X17335349Y-11999841D01*
X17335349Y-11999841D02*
X17316301Y-11990317D01*
X17316301Y-11990317D02*
X17287730Y-11990317D01*
X17287730Y-11990317D02*
X17268682Y-11980793D01*
X17268682Y-11980793D02*
X17259158Y-11961746D01*
X17259158Y-11961746D02*
X17259158Y-11952222D01*
X17259158Y-11952222D02*
X17268682Y-11933174D01*
X17268682Y-11933174D02*
X17287730Y-11923650D01*
X17287730Y-11923650D02*
X17316301Y-11923650D01*
X17316301Y-11923650D02*
X17335349Y-11933174D01*
X17411539Y-12133174D02*
X17421063Y-12123650D01*
X17421063Y-12123650D02*
X17440111Y-12095079D01*
X17440111Y-12095079D02*
X17449634Y-12076031D01*
X17449634Y-12076031D02*
X17459158Y-12047460D01*
X17459158Y-12047460D02*
X17468682Y-11999841D01*
X17468682Y-11999841D02*
X17468682Y-11961746D01*
X17468682Y-11961746D02*
X17459158Y-11914127D01*
X17459158Y-11914127D02*
X17449634Y-11885555D01*
X17449634Y-11885555D02*
X17440111Y-11866508D01*
X17440111Y-11866508D02*
X17421063Y-11837936D01*
X17421063Y-11837936D02*
X17411539Y-11828412D01*
M02*
