M48
; DRILL file {KiCad 8.0.3} date 2024-06-16T13:56:38+0200
; FORMAT={-:-/ absolute / metric / decimal}
; #@! TF.CreationDate,2024-06-16T13:56:38+02:00
; #@! TF.GenerationSoftware,Kicad,Pcbnew,8.0.3
; #@! TF.FileFunction,Plated,1,2,PTH
FMAT,2
METRIC
; #@! TA.AperFunction,Plated,PTH,ViaDrill
T1C0.300
; #@! TA.AperFunction,Plated,PTH,ComponentDrill
T2C0.300
; #@! TA.AperFunction,Plated,PTH,ComponentDrill
T3C0.813
%
G90
G05
T1
X125.73Y-102.552
X127.953Y-99.377
X128.588Y-100.012
X128.588Y-102.235
X129.222Y-100.647
X134.795Y-92.31
X136.525Y-92.71
X140.335Y-94.095
X140.335Y-98.425
X140.97Y-93.345
X143.177Y-103.33
X144.166Y-103.792
X146.685Y-92.71
X147.512Y-92.507
X147.955Y-89.852
X148.334Y-92.726
X148.907Y-90.487
X148.907Y-98.742
X148.907Y-103.188
X151.459Y-89.668
X151.568Y-92.797
X151.765Y-91.123
X152.525Y-91.503
X153.336Y-90.719
X153.894Y-92.258
T2
X130.862Y-93.74
X130.862Y-94.84
X131.412Y-93.19
X131.412Y-94.29
X131.412Y-95.39
X131.963Y-93.74
X131.963Y-94.84
X132.512Y-93.19
X132.512Y-94.29
X132.512Y-95.39
X133.062Y-93.74
X133.062Y-94.84
T3
X140.97Y-85.09
X140.97Y-105.41
X143.51Y-85.09
X143.51Y-105.41
X146.05Y-85.09
X146.05Y-105.41
X148.59Y-85.09
X148.59Y-105.41
X151.13Y-85.09
X151.13Y-105.41
M30
