G04 #@! TF.GenerationSoftware,KiCad,Pcbnew,8.0.3*
G04 #@! TF.CreationDate,2024-06-16T13:56:31+02:00*
G04 #@! TF.ProjectId,UPET-Wifi,55504554-2d57-4696-9669-2e6b69636164,rev?*
G04 #@! TF.SameCoordinates,Original*
G04 #@! TF.FileFunction,Legend,Top*
G04 #@! TF.FilePolarity,Positive*
%FSLAX46Y46*%
G04 Gerber Fmt 4.6, Leading zero omitted, Abs format (unit mm)*
G04 Created by KiCad (PCBNEW 8.0.3) date 2024-06-16 13:56:31*
%MOMM*%
%LPD*%
G01*
G04 APERTURE LIST*
G04 Aperture macros list*
%AMRoundRect*
0 Rectangle with rounded corners*
0 $1 Rounding radius*
0 $2 $3 $4 $5 $6 $7 $8 $9 X,Y pos of 4 corners*
0 Add a 4 corners polygon primitive as box body*
4,1,4,$2,$3,$4,$5,$6,$7,$8,$9,$2,$3,0*
0 Add four circle primitives for the rounded corners*
1,1,$1+$1,$2,$3*
1,1,$1+$1,$4,$5*
1,1,$1+$1,$6,$7*
1,1,$1+$1,$8,$9*
0 Add four rect primitives between the rounded corners*
20,1,$1+$1,$2,$3,$4,$5,0*
20,1,$1+$1,$4,$5,$6,$7,0*
20,1,$1+$1,$6,$7,$8,$9,0*
20,1,$1+$1,$8,$9,$2,$3,0*%
%AMFreePoly0*
4,1,19,0.500000,-0.750000,0.000000,-0.750000,0.000000,-0.744911,-0.071157,-0.744911,-0.207708,-0.704816,-0.327430,-0.627875,-0.420627,-0.520320,-0.479746,-0.390866,-0.500000,-0.250000,-0.500000,0.250000,-0.479746,0.390866,-0.420627,0.520320,-0.327430,0.627875,-0.207708,0.704816,-0.071157,0.744911,0.000000,0.744911,0.000000,0.750000,0.500000,0.750000,0.500000,-0.750000,0.500000,-0.750000,
$1*%
%AMFreePoly1*
4,1,19,0.000000,0.744911,0.071157,0.744911,0.207708,0.704816,0.327430,0.627875,0.420627,0.520320,0.479746,0.390866,0.500000,0.250000,0.500000,-0.250000,0.479746,-0.390866,0.420627,-0.520320,0.327430,-0.627875,0.207708,-0.704816,0.071157,-0.744911,0.000000,-0.744911,0.000000,-0.750000,-0.500000,-0.750000,-0.500000,0.750000,0.000000,0.750000,0.000000,0.744911,0.000000,0.744911,
$1*%
G04 Aperture macros list end*
%ADD10C,0.200000*%
%ADD11C,0.150000*%
%ADD12C,0.120000*%
%ADD13C,0.152400*%
%ADD14RoundRect,0.237500X0.237500X-0.300000X0.237500X0.300000X-0.237500X0.300000X-0.237500X-0.300000X0*%
%ADD15R,0.900000X1.500000*%
%ADD16C,0.600000*%
%ADD17R,2.900000X2.900000*%
%ADD18RoundRect,0.100000X0.100000X-0.637500X0.100000X0.637500X-0.100000X0.637500X-0.100000X-0.637500X0*%
%ADD19FreePoly0,180.000000*%
%ADD20FreePoly1,180.000000*%
%ADD21O,1.524000X2.844800*%
%ADD22RoundRect,0.237500X-0.250000X-0.237500X0.250000X-0.237500X0.250000X0.237500X-0.250000X0.237500X0*%
%ADD23R,1.800000X2.000000*%
%ADD24FreePoly0,90.000000*%
%ADD25FreePoly1,90.000000*%
G04 APERTURE END LIST*
D10*
X126127620Y-83322219D02*
X126127620Y-84131742D01*
X126127620Y-84131742D02*
X126175239Y-84226980D01*
X126175239Y-84226980D02*
X126222858Y-84274600D01*
X126222858Y-84274600D02*
X126318096Y-84322219D01*
X126318096Y-84322219D02*
X126508572Y-84322219D01*
X126508572Y-84322219D02*
X126603810Y-84274600D01*
X126603810Y-84274600D02*
X126651429Y-84226980D01*
X126651429Y-84226980D02*
X126699048Y-84131742D01*
X126699048Y-84131742D02*
X126699048Y-83322219D01*
X127175239Y-84322219D02*
X127175239Y-83322219D01*
X127175239Y-83322219D02*
X127556191Y-83322219D01*
X127556191Y-83322219D02*
X127651429Y-83369838D01*
X127651429Y-83369838D02*
X127699048Y-83417457D01*
X127699048Y-83417457D02*
X127746667Y-83512695D01*
X127746667Y-83512695D02*
X127746667Y-83655552D01*
X127746667Y-83655552D02*
X127699048Y-83750790D01*
X127699048Y-83750790D02*
X127651429Y-83798409D01*
X127651429Y-83798409D02*
X127556191Y-83846028D01*
X127556191Y-83846028D02*
X127175239Y-83846028D01*
X128175239Y-83798409D02*
X128508572Y-83798409D01*
X128651429Y-84322219D02*
X128175239Y-84322219D01*
X128175239Y-84322219D02*
X128175239Y-83322219D01*
X128175239Y-83322219D02*
X128651429Y-83322219D01*
X128937144Y-83322219D02*
X129508572Y-83322219D01*
X129222858Y-84322219D02*
X129222858Y-83322219D01*
X129841906Y-83941266D02*
X130603811Y-83941266D01*
X130984763Y-83322219D02*
X131222858Y-84322219D01*
X131222858Y-84322219D02*
X131413334Y-83607933D01*
X131413334Y-83607933D02*
X131603810Y-84322219D01*
X131603810Y-84322219D02*
X131841906Y-83322219D01*
X132222858Y-84322219D02*
X132222858Y-83322219D01*
X133032381Y-83798409D02*
X132699048Y-83798409D01*
X132699048Y-84322219D02*
X132699048Y-83322219D01*
X132699048Y-83322219D02*
X133175238Y-83322219D01*
X133556191Y-84322219D02*
X133556191Y-83322219D01*
X134032381Y-83941266D02*
X134794286Y-83941266D01*
X135794285Y-84322219D02*
X135222857Y-84322219D01*
X135508571Y-84322219D02*
X135508571Y-83322219D01*
X135508571Y-83322219D02*
X135413333Y-83465076D01*
X135413333Y-83465076D02*
X135318095Y-83560314D01*
X135318095Y-83560314D02*
X135222857Y-83607933D01*
X136222857Y-84226980D02*
X136270476Y-84274600D01*
X136270476Y-84274600D02*
X136222857Y-84322219D01*
X136222857Y-84322219D02*
X136175238Y-84274600D01*
X136175238Y-84274600D02*
X136222857Y-84226980D01*
X136222857Y-84226980D02*
X136222857Y-84322219D01*
X137222856Y-84322219D02*
X136651428Y-84322219D01*
X136937142Y-84322219D02*
X136937142Y-83322219D01*
X136937142Y-83322219D02*
X136841904Y-83465076D01*
X136841904Y-83465076D02*
X136746666Y-83560314D01*
X136746666Y-83560314D02*
X136651428Y-83607933D01*
X137603809Y-84036504D02*
X138079999Y-84036504D01*
X137508571Y-84322219D02*
X137841904Y-83322219D01*
X137841904Y-83322219D02*
X138175237Y-84322219D01*
D11*
X145297080Y-101131666D02*
X145344700Y-101179285D01*
X145344700Y-101179285D02*
X145392319Y-101322142D01*
X145392319Y-101322142D02*
X145392319Y-101417380D01*
X145392319Y-101417380D02*
X145344700Y-101560237D01*
X145344700Y-101560237D02*
X145249461Y-101655475D01*
X145249461Y-101655475D02*
X145154223Y-101703094D01*
X145154223Y-101703094D02*
X144963747Y-101750713D01*
X144963747Y-101750713D02*
X144820890Y-101750713D01*
X144820890Y-101750713D02*
X144630414Y-101703094D01*
X144630414Y-101703094D02*
X144535176Y-101655475D01*
X144535176Y-101655475D02*
X144439938Y-101560237D01*
X144439938Y-101560237D02*
X144392319Y-101417380D01*
X144392319Y-101417380D02*
X144392319Y-101322142D01*
X144392319Y-101322142D02*
X144439938Y-101179285D01*
X144439938Y-101179285D02*
X144487557Y-101131666D01*
X144392319Y-100798332D02*
X144392319Y-100179285D01*
X144392319Y-100179285D02*
X144773271Y-100512618D01*
X144773271Y-100512618D02*
X144773271Y-100369761D01*
X144773271Y-100369761D02*
X144820890Y-100274523D01*
X144820890Y-100274523D02*
X144868509Y-100226904D01*
X144868509Y-100226904D02*
X144963747Y-100179285D01*
X144963747Y-100179285D02*
X145201842Y-100179285D01*
X145201842Y-100179285D02*
X145297080Y-100226904D01*
X145297080Y-100226904D02*
X145344700Y-100274523D01*
X145344700Y-100274523D02*
X145392319Y-100369761D01*
X145392319Y-100369761D02*
X145392319Y-100655475D01*
X145392319Y-100655475D02*
X145344700Y-100750713D01*
X145344700Y-100750713D02*
X145297080Y-100798332D01*
X136130595Y-105204819D02*
X136130595Y-106014342D01*
X136130595Y-106014342D02*
X136178214Y-106109580D01*
X136178214Y-106109580D02*
X136225833Y-106157200D01*
X136225833Y-106157200D02*
X136321071Y-106204819D01*
X136321071Y-106204819D02*
X136511547Y-106204819D01*
X136511547Y-106204819D02*
X136606785Y-106157200D01*
X136606785Y-106157200D02*
X136654404Y-106109580D01*
X136654404Y-106109580D02*
X136702023Y-106014342D01*
X136702023Y-106014342D02*
X136702023Y-105204819D01*
X137702023Y-106204819D02*
X137130595Y-106204819D01*
X137416309Y-106204819D02*
X137416309Y-105204819D01*
X137416309Y-105204819D02*
X137321071Y-105347676D01*
X137321071Y-105347676D02*
X137225833Y-105442914D01*
X137225833Y-105442914D02*
X137130595Y-105490533D01*
X143514819Y-91884404D02*
X144324342Y-91884404D01*
X144324342Y-91884404D02*
X144419580Y-91836785D01*
X144419580Y-91836785D02*
X144467200Y-91789166D01*
X144467200Y-91789166D02*
X144514819Y-91693928D01*
X144514819Y-91693928D02*
X144514819Y-91503452D01*
X144514819Y-91503452D02*
X144467200Y-91408214D01*
X144467200Y-91408214D02*
X144419580Y-91360595D01*
X144419580Y-91360595D02*
X144324342Y-91312976D01*
X144324342Y-91312976D02*
X143514819Y-91312976D01*
X143610057Y-90884404D02*
X143562438Y-90836785D01*
X143562438Y-90836785D02*
X143514819Y-90741547D01*
X143514819Y-90741547D02*
X143514819Y-90503452D01*
X143514819Y-90503452D02*
X143562438Y-90408214D01*
X143562438Y-90408214D02*
X143610057Y-90360595D01*
X143610057Y-90360595D02*
X143705295Y-90312976D01*
X143705295Y-90312976D02*
X143800533Y-90312976D01*
X143800533Y-90312976D02*
X143943390Y-90360595D01*
X143943390Y-90360595D02*
X144514819Y-90932023D01*
X144514819Y-90932023D02*
X144514819Y-90312976D01*
X135374166Y-105817319D02*
X135374166Y-106531604D01*
X135374166Y-106531604D02*
X135326547Y-106674461D01*
X135326547Y-106674461D02*
X135231309Y-106769700D01*
X135231309Y-106769700D02*
X135088452Y-106817319D01*
X135088452Y-106817319D02*
X134993214Y-106817319D01*
X135850357Y-106817319D02*
X135850357Y-105817319D01*
X135850357Y-105817319D02*
X136231309Y-105817319D01*
X136231309Y-105817319D02*
X136326547Y-105864938D01*
X136326547Y-105864938D02*
X136374166Y-105912557D01*
X136374166Y-105912557D02*
X136421785Y-106007795D01*
X136421785Y-106007795D02*
X136421785Y-106150652D01*
X136421785Y-106150652D02*
X136374166Y-106245890D01*
X136374166Y-106245890D02*
X136326547Y-106293509D01*
X136326547Y-106293509D02*
X136231309Y-106341128D01*
X136231309Y-106341128D02*
X135850357Y-106341128D01*
X136802738Y-105912557D02*
X136850357Y-105864938D01*
X136850357Y-105864938D02*
X136945595Y-105817319D01*
X136945595Y-105817319D02*
X137183690Y-105817319D01*
X137183690Y-105817319D02*
X137278928Y-105864938D01*
X137278928Y-105864938D02*
X137326547Y-105912557D01*
X137326547Y-105912557D02*
X137374166Y-106007795D01*
X137374166Y-106007795D02*
X137374166Y-106103033D01*
X137374166Y-106103033D02*
X137326547Y-106245890D01*
X137326547Y-106245890D02*
X136755119Y-106817319D01*
X136755119Y-106817319D02*
X137374166Y-106817319D01*
X130960833Y-106817319D02*
X130627500Y-106341128D01*
X130389405Y-106817319D02*
X130389405Y-105817319D01*
X130389405Y-105817319D02*
X130770357Y-105817319D01*
X130770357Y-105817319D02*
X130865595Y-105864938D01*
X130865595Y-105864938D02*
X130913214Y-105912557D01*
X130913214Y-105912557D02*
X130960833Y-106007795D01*
X130960833Y-106007795D02*
X130960833Y-106150652D01*
X130960833Y-106150652D02*
X130913214Y-106245890D01*
X130913214Y-106245890D02*
X130865595Y-106293509D01*
X130865595Y-106293509D02*
X130770357Y-106341128D01*
X130770357Y-106341128D02*
X130389405Y-106341128D01*
X131913214Y-106817319D02*
X131341786Y-106817319D01*
X131627500Y-106817319D02*
X131627500Y-105817319D01*
X131627500Y-105817319D02*
X131532262Y-105960176D01*
X131532262Y-105960176D02*
X131437024Y-106055414D01*
X131437024Y-106055414D02*
X131341786Y-106103033D01*
X143234580Y-88114166D02*
X143282200Y-88161785D01*
X143282200Y-88161785D02*
X143329819Y-88304642D01*
X143329819Y-88304642D02*
X143329819Y-88399880D01*
X143329819Y-88399880D02*
X143282200Y-88542737D01*
X143282200Y-88542737D02*
X143186961Y-88637975D01*
X143186961Y-88637975D02*
X143091723Y-88685594D01*
X143091723Y-88685594D02*
X142901247Y-88733213D01*
X142901247Y-88733213D02*
X142758390Y-88733213D01*
X142758390Y-88733213D02*
X142567914Y-88685594D01*
X142567914Y-88685594D02*
X142472676Y-88637975D01*
X142472676Y-88637975D02*
X142377438Y-88542737D01*
X142377438Y-88542737D02*
X142329819Y-88399880D01*
X142329819Y-88399880D02*
X142329819Y-88304642D01*
X142329819Y-88304642D02*
X142377438Y-88161785D01*
X142377438Y-88161785D02*
X142425057Y-88114166D01*
X143329819Y-87161785D02*
X143329819Y-87733213D01*
X143329819Y-87447499D02*
X142329819Y-87447499D01*
X142329819Y-87447499D02*
X142472676Y-87542737D01*
X142472676Y-87542737D02*
X142567914Y-87637975D01*
X142567914Y-87637975D02*
X142615533Y-87733213D01*
X142282080Y-101131666D02*
X142329700Y-101179285D01*
X142329700Y-101179285D02*
X142377319Y-101322142D01*
X142377319Y-101322142D02*
X142377319Y-101417380D01*
X142377319Y-101417380D02*
X142329700Y-101560237D01*
X142329700Y-101560237D02*
X142234461Y-101655475D01*
X142234461Y-101655475D02*
X142139223Y-101703094D01*
X142139223Y-101703094D02*
X141948747Y-101750713D01*
X141948747Y-101750713D02*
X141805890Y-101750713D01*
X141805890Y-101750713D02*
X141615414Y-101703094D01*
X141615414Y-101703094D02*
X141520176Y-101655475D01*
X141520176Y-101655475D02*
X141424938Y-101560237D01*
X141424938Y-101560237D02*
X141377319Y-101417380D01*
X141377319Y-101417380D02*
X141377319Y-101322142D01*
X141377319Y-101322142D02*
X141424938Y-101179285D01*
X141424938Y-101179285D02*
X141472557Y-101131666D01*
X141710652Y-100274523D02*
X142377319Y-100274523D01*
X141329700Y-100512618D02*
X142043985Y-100750713D01*
X142043985Y-100750713D02*
X142043985Y-100131666D01*
X141329580Y-98274166D02*
X141377200Y-98321785D01*
X141377200Y-98321785D02*
X141424819Y-98464642D01*
X141424819Y-98464642D02*
X141424819Y-98559880D01*
X141424819Y-98559880D02*
X141377200Y-98702737D01*
X141377200Y-98702737D02*
X141281961Y-98797975D01*
X141281961Y-98797975D02*
X141186723Y-98845594D01*
X141186723Y-98845594D02*
X140996247Y-98893213D01*
X140996247Y-98893213D02*
X140853390Y-98893213D01*
X140853390Y-98893213D02*
X140662914Y-98845594D01*
X140662914Y-98845594D02*
X140567676Y-98797975D01*
X140567676Y-98797975D02*
X140472438Y-98702737D01*
X140472438Y-98702737D02*
X140424819Y-98559880D01*
X140424819Y-98559880D02*
X140424819Y-98464642D01*
X140424819Y-98464642D02*
X140472438Y-98321785D01*
X140472438Y-98321785D02*
X140520057Y-98274166D01*
X140520057Y-97893213D02*
X140472438Y-97845594D01*
X140472438Y-97845594D02*
X140424819Y-97750356D01*
X140424819Y-97750356D02*
X140424819Y-97512261D01*
X140424819Y-97512261D02*
X140472438Y-97417023D01*
X140472438Y-97417023D02*
X140520057Y-97369404D01*
X140520057Y-97369404D02*
X140615295Y-97321785D01*
X140615295Y-97321785D02*
X140710533Y-97321785D01*
X140710533Y-97321785D02*
X140853390Y-97369404D01*
X140853390Y-97369404D02*
X141424819Y-97940832D01*
X141424819Y-97940832D02*
X141424819Y-97321785D01*
X144869819Y-98320833D02*
X145584104Y-98320833D01*
X145584104Y-98320833D02*
X145726961Y-98368452D01*
X145726961Y-98368452D02*
X145822200Y-98463690D01*
X145822200Y-98463690D02*
X145869819Y-98606547D01*
X145869819Y-98606547D02*
X145869819Y-98701785D01*
X145869819Y-97844642D02*
X144869819Y-97844642D01*
X144869819Y-97844642D02*
X144869819Y-97463690D01*
X144869819Y-97463690D02*
X144917438Y-97368452D01*
X144917438Y-97368452D02*
X144965057Y-97320833D01*
X144965057Y-97320833D02*
X145060295Y-97273214D01*
X145060295Y-97273214D02*
X145203152Y-97273214D01*
X145203152Y-97273214D02*
X145298390Y-97320833D01*
X145298390Y-97320833D02*
X145346009Y-97368452D01*
X145346009Y-97368452D02*
X145393628Y-97463690D01*
X145393628Y-97463690D02*
X145393628Y-97844642D01*
X145869819Y-96320833D02*
X145869819Y-96892261D01*
X145869819Y-96606547D02*
X144869819Y-96606547D01*
X144869819Y-96606547D02*
X145012676Y-96701785D01*
X145012676Y-96701785D02*
X145107914Y-96797023D01*
X145107914Y-96797023D02*
X145155533Y-96892261D01*
D12*
X145857500Y-101111267D02*
X145857500Y-100818733D01*
X146877500Y-101111267D02*
X146877500Y-100818733D01*
X118552500Y-104360000D02*
X124362500Y-104360000D01*
X118552500Y-104360000D02*
X118552500Y-86140000D01*
X138472500Y-104360000D02*
X138772500Y-104360000D01*
X138772500Y-104360000D02*
X138772500Y-86140000D01*
X118552500Y-86140000D02*
X125052500Y-86140000D01*
X138472500Y-86140000D02*
X138772500Y-86140000D01*
X125062500Y-104850000D02*
X124562500Y-104350000D01*
X125062500Y-104350000D01*
X125062500Y-104850000D01*
G36*
X125062500Y-104850000D02*
G01*
X124562500Y-104350000D01*
X125062500Y-104350000D01*
X125062500Y-104850000D01*
G37*
X144900000Y-93432500D02*
X145175000Y-93432500D01*
X154820000Y-93432500D02*
X154545000Y-93432500D01*
X144900000Y-91122500D02*
X144900000Y-93432500D01*
X144900000Y-91122500D02*
X144900000Y-88812500D01*
X154820000Y-91122500D02*
X154820000Y-93432500D01*
X154820000Y-91122500D02*
X154820000Y-88812500D01*
X144900000Y-88812500D02*
X145175000Y-88812500D01*
X154820000Y-88812500D02*
X154545000Y-88812500D01*
X145175000Y-94022500D02*
X144845000Y-94262500D01*
X144845000Y-93782500D01*
X145175000Y-94022500D01*
G36*
X145175000Y-94022500D02*
G01*
X144845000Y-94262500D01*
X144845000Y-93782500D01*
X145175000Y-94022500D01*
G37*
X134750000Y-106062500D02*
X134750000Y-106662500D01*
X134050000Y-107362500D02*
X132650000Y-107362500D01*
X132650000Y-105362500D02*
X134050000Y-105362500D01*
X131950000Y-106662500D02*
X131950000Y-106062500D01*
X134750000Y-106662500D02*
G75*
G02*
X134050000Y-107362500I-699999J-1D01*
G01*
X134050000Y-105362500D02*
G75*
G02*
X134750000Y-106062500I1J-699999D01*
G01*
X132650000Y-107362500D02*
G75*
G02*
X131950000Y-106662500I0J700000D01*
G01*
X131950000Y-106062500D02*
G75*
G02*
X132650000Y-105362500I700000J0D01*
G01*
D13*
X125095000Y-82804000D02*
X125095000Y-107696000D01*
X125095000Y-107696000D02*
X156845000Y-107696000D01*
X156845000Y-82804000D02*
X125095000Y-82804000D01*
X156845000Y-82804000D02*
X156845000Y-107696000D01*
D12*
X128332776Y-105840000D02*
X128842224Y-105840000D01*
X128332776Y-106885000D02*
X128842224Y-106885000D01*
X142365000Y-90951267D02*
X142365000Y-90658733D01*
X143385000Y-90951267D02*
X143385000Y-90658733D01*
X143000000Y-101111267D02*
X143000000Y-100818733D01*
X144020000Y-101111267D02*
X144020000Y-100818733D01*
X140460000Y-101111267D02*
X140460000Y-100818733D01*
X141480000Y-101111267D02*
X141480000Y-100818733D01*
X155067500Y-96767500D02*
X155067500Y-101987500D01*
X152547500Y-96767500D02*
X152887500Y-96767500D01*
X150007500Y-96767500D02*
X150347500Y-96767500D01*
X147827500Y-99377500D02*
X147827500Y-96767500D01*
X152887500Y-101987500D02*
X152547500Y-101987500D01*
X150347500Y-101987500D02*
X150007500Y-101987500D01*
X142510000Y-97855000D02*
X142510000Y-96455000D01*
X143210000Y-95755000D02*
X143810000Y-95755000D01*
X143810000Y-98555000D02*
X143210000Y-98555000D01*
X144510000Y-96455000D02*
X144510000Y-97855000D01*
X142510000Y-96455000D02*
G75*
G02*
X143210000Y-95755000I700000J0D01*
G01*
X143210000Y-98555000D02*
G75*
G02*
X142510000Y-97855000I-1J699999D01*
G01*
X143810000Y-95755000D02*
G75*
G02*
X144510000Y-96455000I0J-700000D01*
G01*
X144510000Y-97855000D02*
G75*
G02*
X143810000Y-98555000I-699999J-1D01*
G01*
%LPC*%
D14*
X146367500Y-101827500D03*
X146367500Y-100102500D03*
D15*
X125762500Y-104000000D03*
X127262500Y-104000000D03*
X128762500Y-104000000D03*
X130262500Y-104000000D03*
X131762500Y-104000000D03*
X133262500Y-104000000D03*
X134762500Y-104000000D03*
X136262500Y-104000000D03*
X137762500Y-104000000D03*
X137762500Y-86500000D03*
X136262500Y-86500000D03*
X134762500Y-86500000D03*
X133262500Y-86500000D03*
X131762500Y-86500000D03*
X130262500Y-86500000D03*
X128762500Y-86500000D03*
X127262500Y-86500000D03*
X125762500Y-86500000D03*
D16*
X131412500Y-95390000D03*
X132512500Y-95390000D03*
X130862500Y-94840000D03*
X131962500Y-94840000D03*
X133062500Y-94840000D03*
X131412500Y-94290000D03*
D17*
X131962500Y-94290000D03*
D16*
X132512500Y-94290000D03*
X130862500Y-93740000D03*
X131962500Y-93740000D03*
X133062500Y-93740000D03*
X131412500Y-93190000D03*
X132512500Y-93190000D03*
D18*
X145635000Y-93985000D03*
X146285000Y-93985000D03*
X146935000Y-93985000D03*
X147585000Y-93985000D03*
X148235000Y-93985000D03*
X148885000Y-93985000D03*
X149535000Y-93985000D03*
X150185000Y-93985000D03*
X150835000Y-93985000D03*
X151485000Y-93985000D03*
X152135000Y-93985000D03*
X152785000Y-93985000D03*
X153435000Y-93985000D03*
X154085000Y-93985000D03*
X154085000Y-88260000D03*
X153435000Y-88260000D03*
X152785000Y-88260000D03*
X152135000Y-88260000D03*
X151485000Y-88260000D03*
X150835000Y-88260000D03*
X150185000Y-88260000D03*
X149535000Y-88260000D03*
X148885000Y-88260000D03*
X148235000Y-88260000D03*
X147585000Y-88260000D03*
X146935000Y-88260000D03*
X146285000Y-88260000D03*
X145635000Y-88260000D03*
D19*
X134000000Y-106362500D03*
D20*
X132700000Y-106362500D03*
D21*
X151130000Y-85090000D03*
X148590000Y-85090000D03*
X146050000Y-85090000D03*
X143510000Y-85090000D03*
X140970000Y-85090000D03*
X140970000Y-105410000D03*
X143510000Y-105410000D03*
X146050000Y-105410000D03*
X148590000Y-105410000D03*
X151130000Y-105410000D03*
D22*
X127675000Y-106362500D03*
X129500000Y-106362500D03*
D14*
X142875000Y-91667500D03*
X142875000Y-89942500D03*
X143510000Y-101827500D03*
X143510000Y-100102500D03*
X140970000Y-101827500D03*
X140970000Y-100102500D03*
D23*
X148907500Y-101477500D03*
X151447500Y-101477500D03*
X153987500Y-101477500D03*
X153987500Y-97277500D03*
X151447500Y-97277500D03*
X148907500Y-97277500D03*
D24*
X143510000Y-97805000D03*
D25*
X143510000Y-96505000D03*
%LPD*%
M02*
