G04 #@! TF.GenerationSoftware,KiCad,Pcbnew,8.0.3*
G04 #@! TF.CreationDate,2024-06-16T13:56:31+02:00*
G04 #@! TF.ProjectId,UPET-Wifi,55504554-2d57-4696-9669-2e6b69636164,rev?*
G04 #@! TF.SameCoordinates,Original*
G04 #@! TF.FileFunction,Soldermask,Top*
G04 #@! TF.FilePolarity,Negative*
%FSLAX46Y46*%
G04 Gerber Fmt 4.6, Leading zero omitted, Abs format (unit mm)*
G04 Created by KiCad (PCBNEW 8.0.3) date 2024-06-16 13:56:31*
%MOMM*%
%LPD*%
G01*
G04 APERTURE LIST*
G04 Aperture macros list*
%AMRoundRect*
0 Rectangle with rounded corners*
0 $1 Rounding radius*
0 $2 $3 $4 $5 $6 $7 $8 $9 X,Y pos of 4 corners*
0 Add a 4 corners polygon primitive as box body*
4,1,4,$2,$3,$4,$5,$6,$7,$8,$9,$2,$3,0*
0 Add four circle primitives for the rounded corners*
1,1,$1+$1,$2,$3*
1,1,$1+$1,$4,$5*
1,1,$1+$1,$6,$7*
1,1,$1+$1,$8,$9*
0 Add four rect primitives between the rounded corners*
20,1,$1+$1,$2,$3,$4,$5,0*
20,1,$1+$1,$4,$5,$6,$7,0*
20,1,$1+$1,$6,$7,$8,$9,0*
20,1,$1+$1,$8,$9,$2,$3,0*%
%AMFreePoly0*
4,1,19,0.500000,-0.750000,0.000000,-0.750000,0.000000,-0.744911,-0.071157,-0.744911,-0.207708,-0.704816,-0.327430,-0.627875,-0.420627,-0.520320,-0.479746,-0.390866,-0.500000,-0.250000,-0.500000,0.250000,-0.479746,0.390866,-0.420627,0.520320,-0.327430,0.627875,-0.207708,0.704816,-0.071157,0.744911,0.000000,0.744911,0.000000,0.750000,0.500000,0.750000,0.500000,-0.750000,0.500000,-0.750000,
$1*%
%AMFreePoly1*
4,1,19,0.000000,0.744911,0.071157,0.744911,0.207708,0.704816,0.327430,0.627875,0.420627,0.520320,0.479746,0.390866,0.500000,0.250000,0.500000,-0.250000,0.479746,-0.390866,0.420627,-0.520320,0.327430,-0.627875,0.207708,-0.704816,0.071157,-0.744911,0.000000,-0.744911,0.000000,-0.750000,-0.500000,-0.750000,-0.500000,0.750000,0.000000,0.750000,0.000000,0.744911,0.000000,0.744911,
$1*%
G04 Aperture macros list end*
%ADD10RoundRect,0.237500X0.237500X-0.300000X0.237500X0.300000X-0.237500X0.300000X-0.237500X-0.300000X0*%
%ADD11R,0.900000X1.500000*%
%ADD12C,0.600000*%
%ADD13R,2.900000X2.900000*%
%ADD14RoundRect,0.100000X0.100000X-0.637500X0.100000X0.637500X-0.100000X0.637500X-0.100000X-0.637500X0*%
%ADD15FreePoly0,180.000000*%
%ADD16FreePoly1,180.000000*%
%ADD17O,1.524000X2.844800*%
%ADD18RoundRect,0.237500X-0.250000X-0.237500X0.250000X-0.237500X0.250000X0.237500X-0.250000X0.237500X0*%
%ADD19R,1.800000X2.000000*%
%ADD20FreePoly0,90.000000*%
%ADD21FreePoly1,90.000000*%
G04 APERTURE END LIST*
D10*
X146367500Y-101827500D03*
X146367500Y-100102500D03*
D11*
X125762500Y-104000000D03*
X127262500Y-104000000D03*
X128762500Y-104000000D03*
X130262500Y-104000000D03*
X131762500Y-104000000D03*
X133262500Y-104000000D03*
X134762500Y-104000000D03*
X136262500Y-104000000D03*
X137762500Y-104000000D03*
X137762500Y-86500000D03*
X136262500Y-86500000D03*
X134762500Y-86500000D03*
X133262500Y-86500000D03*
X131762500Y-86500000D03*
X130262500Y-86500000D03*
X128762500Y-86500000D03*
X127262500Y-86500000D03*
X125762500Y-86500000D03*
D12*
X131412500Y-95390000D03*
X132512500Y-95390000D03*
X130862500Y-94840000D03*
X131962500Y-94840000D03*
X133062500Y-94840000D03*
X131412500Y-94290000D03*
D13*
X131962500Y-94290000D03*
D12*
X132512500Y-94290000D03*
X130862500Y-93740000D03*
X131962500Y-93740000D03*
X133062500Y-93740000D03*
X131412500Y-93190000D03*
X132512500Y-93190000D03*
D14*
X145635000Y-93985000D03*
X146285000Y-93985000D03*
X146935000Y-93985000D03*
X147585000Y-93985000D03*
X148235000Y-93985000D03*
X148885000Y-93985000D03*
X149535000Y-93985000D03*
X150185000Y-93985000D03*
X150835000Y-93985000D03*
X151485000Y-93985000D03*
X152135000Y-93985000D03*
X152785000Y-93985000D03*
X153435000Y-93985000D03*
X154085000Y-93985000D03*
X154085000Y-88260000D03*
X153435000Y-88260000D03*
X152785000Y-88260000D03*
X152135000Y-88260000D03*
X151485000Y-88260000D03*
X150835000Y-88260000D03*
X150185000Y-88260000D03*
X149535000Y-88260000D03*
X148885000Y-88260000D03*
X148235000Y-88260000D03*
X147585000Y-88260000D03*
X146935000Y-88260000D03*
X146285000Y-88260000D03*
X145635000Y-88260000D03*
D15*
X134000000Y-106362500D03*
D16*
X132700000Y-106362500D03*
D17*
X151130000Y-85090000D03*
X148590000Y-85090000D03*
X146050000Y-85090000D03*
X143510000Y-85090000D03*
X140970000Y-85090000D03*
X140970000Y-105410000D03*
X143510000Y-105410000D03*
X146050000Y-105410000D03*
X148590000Y-105410000D03*
X151130000Y-105410000D03*
D18*
X127675000Y-106362500D03*
X129500000Y-106362500D03*
D10*
X142875000Y-91667500D03*
X142875000Y-89942500D03*
X143510000Y-101827500D03*
X143510000Y-100102500D03*
X140970000Y-101827500D03*
X140970000Y-100102500D03*
D19*
X148907500Y-101477500D03*
X151447500Y-101477500D03*
X153987500Y-101477500D03*
X153987500Y-97277500D03*
X151447500Y-97277500D03*
X148907500Y-97277500D03*
D20*
X143510000Y-97805000D03*
D21*
X143510000Y-96505000D03*
M02*
