%TF.GenerationSoftware,KiCad,Pcbnew,8.0.3*%
%TF.CreationDate,2024-06-16T13:56:39+02:00*%
%TF.ProjectId,UPET-Wifi,55504554-2d57-4696-9669-2e6b69636164,rev?*%
%TF.SameCoordinates,Original*%
%TF.FileFunction,Drillmap*%
%TF.FilePolarity,Positive*%
%FSLAX45Y45*%
G04 Gerber Fmt 4.5, Leading zero omitted, Abs format (unit mm)*
G04 Created by KiCad (PCBNEW 8.0.3) date 2024-06-16 13:56:39*
%MOMM*%
%LPD*%
G01*
G04 APERTURE LIST*
%ADD10C,0.050000*%
%ADD11C,0.200000*%
G04 APERTURE END LIST*
D10*
X15621000Y-10795000D02*
X12448500Y-10795000D01*
X12448500Y-8255000D02*
X15621000Y-8255000D01*
X15621000Y-8255000D02*
X15621000Y-10795000D01*
X12448500Y-10795000D02*
X12448500Y-8255000D01*
D11*
X12706777Y-11108984D02*
X12706777Y-10908984D01*
X12706777Y-10908984D02*
X12754396Y-10908984D01*
X12754396Y-10908984D02*
X12782967Y-10918508D01*
X12782967Y-10918508D02*
X12802015Y-10937555D01*
X12802015Y-10937555D02*
X12811539Y-10956603D01*
X12811539Y-10956603D02*
X12821062Y-10994698D01*
X12821062Y-10994698D02*
X12821062Y-11023270D01*
X12821062Y-11023270D02*
X12811539Y-11061365D01*
X12811539Y-11061365D02*
X12802015Y-11080412D01*
X12802015Y-11080412D02*
X12782967Y-11099460D01*
X12782967Y-11099460D02*
X12754396Y-11108984D01*
X12754396Y-11108984D02*
X12706777Y-11108984D01*
X12906777Y-11108984D02*
X12906777Y-10975650D01*
X12906777Y-11013746D02*
X12916301Y-10994698D01*
X12916301Y-10994698D02*
X12925824Y-10985174D01*
X12925824Y-10985174D02*
X12944872Y-10975650D01*
X12944872Y-10975650D02*
X12963920Y-10975650D01*
X13030586Y-11108984D02*
X13030586Y-10975650D01*
X13030586Y-10908984D02*
X13021062Y-10918508D01*
X13021062Y-10918508D02*
X13030586Y-10928031D01*
X13030586Y-10928031D02*
X13040110Y-10918508D01*
X13040110Y-10918508D02*
X13030586Y-10908984D01*
X13030586Y-10908984D02*
X13030586Y-10928031D01*
X13154396Y-11108984D02*
X13135348Y-11099460D01*
X13135348Y-11099460D02*
X13125824Y-11080412D01*
X13125824Y-11080412D02*
X13125824Y-10908984D01*
X13259158Y-11108984D02*
X13240110Y-11099460D01*
X13240110Y-11099460D02*
X13230586Y-11080412D01*
X13230586Y-11080412D02*
X13230586Y-10908984D01*
X13487729Y-11108984D02*
X13487729Y-10908984D01*
X13487729Y-10908984D02*
X13554396Y-11051841D01*
X13554396Y-11051841D02*
X13621062Y-10908984D01*
X13621062Y-10908984D02*
X13621062Y-11108984D01*
X13802015Y-11108984D02*
X13802015Y-11004222D01*
X13802015Y-11004222D02*
X13792491Y-10985174D01*
X13792491Y-10985174D02*
X13773443Y-10975650D01*
X13773443Y-10975650D02*
X13735348Y-10975650D01*
X13735348Y-10975650D02*
X13716301Y-10985174D01*
X13802015Y-11099460D02*
X13782967Y-11108984D01*
X13782967Y-11108984D02*
X13735348Y-11108984D01*
X13735348Y-11108984D02*
X13716301Y-11099460D01*
X13716301Y-11099460D02*
X13706777Y-11080412D01*
X13706777Y-11080412D02*
X13706777Y-11061365D01*
X13706777Y-11061365D02*
X13716301Y-11042317D01*
X13716301Y-11042317D02*
X13735348Y-11032793D01*
X13735348Y-11032793D02*
X13782967Y-11032793D01*
X13782967Y-11032793D02*
X13802015Y-11023270D01*
X13897253Y-10975650D02*
X13897253Y-11175650D01*
X13897253Y-10985174D02*
X13916301Y-10975650D01*
X13916301Y-10975650D02*
X13954396Y-10975650D01*
X13954396Y-10975650D02*
X13973443Y-10985174D01*
X13973443Y-10985174D02*
X13982967Y-10994698D01*
X13982967Y-10994698D02*
X13992491Y-11013746D01*
X13992491Y-11013746D02*
X13992491Y-11070889D01*
X13992491Y-11070889D02*
X13982967Y-11089936D01*
X13982967Y-11089936D02*
X13973443Y-11099460D01*
X13973443Y-11099460D02*
X13954396Y-11108984D01*
X13954396Y-11108984D02*
X13916301Y-11108984D01*
X13916301Y-11108984D02*
X13897253Y-11099460D01*
X14078205Y-11089936D02*
X14087729Y-11099460D01*
X14087729Y-11099460D02*
X14078205Y-11108984D01*
X14078205Y-11108984D02*
X14068682Y-11099460D01*
X14068682Y-11099460D02*
X14078205Y-11089936D01*
X14078205Y-11089936D02*
X14078205Y-11108984D01*
X14078205Y-10985174D02*
X14087729Y-10994698D01*
X14087729Y-10994698D02*
X14078205Y-11004222D01*
X14078205Y-11004222D02*
X14068682Y-10994698D01*
X14068682Y-10994698D02*
X14078205Y-10985174D01*
X14078205Y-10985174D02*
X14078205Y-11004222D01*
M02*
